<svg xmlns="http://www.w3.org/2000/svg" xmlns:xlink="http://www.w3.org/1999/xlink" viewBox="0 0 126.97 190.48"><defs><style>.cls-1{fill:#ffe8af;}.cls-2{fill:#a04029;}.cls-3{fill:#053435;}.cls-4{fill:#21170f;}.cls-5{fill:#32251e;}.cls-6{fill:#d07d78;}.cls-7{fill:#f3aa96;}.cls-8{fill:url(#Degradado_sin_nombre_4);}.cls-9{fill:none;stroke:#4b2b19;stroke-miterlimit:10;stroke-width:0.34px;}.cls-10{fill:#a56052;}.cls-11{fill:#d45139;}.cls-12{fill:#b0462e;}.cls-13{fill:#e86230;}</style><linearGradient id="Degradado_sin_nombre_4" x1="-9864.3" y1="464.49" x2="-9863.85" y2="467.35" gradientTransform="matrix(-1, -0.02, -0.02, 1, -9805.62, -646.31)" gradientUnits="userSpaceOnUse"><stop offset="0" stop-color="#ce7b76"/><stop offset="1" stop-color="#ce7b76" stop-opacity="0"/></linearGradient></defs><g id="Layer_2" data-name="Layer 2"><g id="OBJECTS"><ellipse class="cls-1" cx="63.49" cy="186.47" rx="63.49" ry="4.02"/><path class="cls-2" d="M61.53,40.13c-3.62-4.49-4.48-7.18-1.33-9.76s6.25.11,9.76,4.48c4.82,6,8.7,11.26,13.2,17.72,1.17,1.68,1.19,3.34.59,6.18-1.42,6.66-7.53,26.34-7.53,26.34s-4,.69-5.19-1.91a187.2,187.2,0,0,0,3.21-26.76C70.12,51.11,66.42,46.2,61.53,40.13Z"/><path class="cls-3" d="M46.35,9c-4.9-1-4-4.59-2.73-8.13,1.87,1.3,7.31.46,11-.33C60-.63,65-.35,66.41,6.27s-1.24,16.8-6,18S48,14.35,46.35,9Z"/><path class="cls-4" d="M94.92,167.64a16.87,16.87,0,0,1,0,7.51c-.74,2.22-5.19,8.06-7.88,8.61s-6.11,1.11-5.46,2.5,10,.56,13.43-.37,12.6-8.15,13.9-9.91.93-1.76-.09-2.87l-8.53-9.36Z"/><path class="cls-4" d="M39.88,170.79c-1.2,1.48-7.41,7.6-11.58,7.69s-8.89.28-9.45,2.13,5.93,3.15,13.07,4.08,16.49,1,16.86-.37S46.18,172,46.18,172Z"/><path class="cls-5" d="M45.53,123.17c0,3.06-1.76,34.56-6.67,47.81.56,2.41,7.32,3,8.81,1,1.76-9.18,9.26-42.25,9.45-47.63S45.53,123.17,45.53,123.17Z"/><path class="cls-5" d="M63.42,123.91a15.32,15.32,0,0,0,3.43,6.76c2,2.41,26,36.51,27.42,38.55,4.73-1.12,7.32-3.34,7.32-6.49C98,156.34,85.28,135.3,82.69,131s-3.34-6.83-8.06-10.28C71.38,118.38,63.42,123.91,63.42,123.91Z"/><path class="cls-6" d="M60.1,27,56.33,14.69l-4.77,1.69L54.4,29.16C56.51,29.92,59.36,28,60.1,27Z"/><path class="cls-7" d="M59.07,24.63s-10.14,5.26-12.59,2.69c-.37-.39-1.1-3.53-1.51-5.8-.59-3.36-.8-7.72.18-10.54C46.78,6.31,52.75.09,57.2,2S71.46,11,59.07,24.63Z"/><path class="cls-7" d="M46.73,15.1h0l-.2-.62a29.72,29.72,0,0,1-4.31,3.19c2.59,2.9,5.6.66,5.17-2.68a2,2,0,0,0-.69.12C46.57,15.18,46.59,15.15,46.73,15.1Z"/><path class="cls-3" d="M57.45,17.65c.25,2.32.48,7,2.09,7.91a17.39,17.39,0,0,0,5.58-8.7c.5-2.53,1.41-8.5.82-10-3.27-4-4.65-4.83-6.65-5.11-1.61-.22-4.83-.39-6.81.4a11.2,11.2,0,0,0-2.62,1.46c-.45.34-1.54.36-2,1L45.38,8.21c5.64,3.93,10.45-2.52,11.22-1C57.5,9,53.26,13,53.91,14.86,54.47,16.47,56.58,15.61,57.45,17.65Z"/><path class="cls-7" d="M58.16,16.66c-.59,1.49-2.36,3-3.34,2.59s-1.29-1.91-.7-3.4,1.87-3.32,3.14-2.73C58.21,13.56,58.75,15.17,58.16,16.66Z"/><path class="cls-8" d="M46.05,11.93c-.16.68-.68,3.14,1.24,3.49S49,12.7,49,12.7,46.93,12.1,46.05,11.93Z"/><path class="cls-3" d="M46.51,11.81c2.1.14,3.51,1.32,1.59,1.07S45.41,11.73,46.51,11.81Z"/><path class="cls-9" d="M47.93,15.26c-.45-1.16-1.71-.85-1.76.1"/><path class="cls-10" d="M50.57,20.78a1.22,1.22,0,0,1,.16,1.2,2,2,0,0,1-.79,1,3.31,3.31,0,0,1-1.17.43l-.62.06-.61,0a5.51,5.51,0,0,0,2.26-.67,1.82,1.82,0,0,0,.75-.85A1.28,1.28,0,0,0,50.57,20.78Z"/><path class="cls-11" d="M76.74,66.71c-1.22-8.58-8.42-34.3-9.34-38.59,0-.08,0-.15,0-.22a21.62,21.62,0,0,0-14,6.5,156.45,156.45,0,0,0-3,20.67c-.46,9-1.22,32-2.76,39.67s-4.13,29.09-4.13,29.09c5.82,4.29,32.47,2.45,37.83-4.44C81.34,108.52,78,75.29,76.74,66.71Z"/><path class="cls-12" d="M66,35.52c1.08,3.37,2,26.35,2.29,28.24a4.91,4.91,0,0,1-1.35,4.58C65.57,69.89,49,81.45,49,81.45l.28-3.28L62.14,62.89l2-17.15Z"/><path class="cls-2" d="M63.57,22.3A32.72,32.72,0,0,0,52.7,30c-.77,1.07.76,4.13.76,4.13l-.06.31a21.62,21.62,0,0,1,14-6.5C66.56,23.71,68.54,20.34,63.57,22.3Z"/><path class="cls-7" d="M38.72,81.05s-6.56,1.59-7.46,2-4.14,4.13-4.36,4.65.65.4,1.65-.41,2.87-2.62,2.82-2.46-3.49,4.43-3.65,5,.74.33,1.64-.5,2.7-3,2.7-3-2.19,2.79-2.68,3.38-.25,1.18.55.65,3.33-3,3.28-2.82-2,2.51-2.15,3,.59.36,1.69-.66,2.07-2.05,2.6-2.51,2.87-1.45,3.44-2,1.32-1,1.62-1.36,1.28-1.27,1.28-1.27A5.44,5.44,0,0,0,38.72,81.05Z"/><path class="cls-13" d="M57.1,40.72c0-5.77,1-8.41,5-8.46s4.82,4,4.85,9.59c0,7.69-.23,14.23-.74,22.08-.13,2-1.15,3.36-3.39,5.2C57.6,73.46,40.55,85,40.55,85s-3.55-2-2.87-4.73a188,188,0,0,0,19.2-18.91C57,54.66,57.14,48.51,57.1,40.72Z"/><path class="cls-3" d="M56,12.55a7.44,7.44,0,0,0-.65,4.72c.57,2.51,1.14,5.35,1.14,5.35L54.3,23.67s-3.65-8.73,2.3-13.28C60.9,7.1,56,12.55,56,12.55Z"/></g></g></svg>