<svg id="Capa_1" enable-background="new 0 0 510 510" height="512" viewBox="0 0 510 510" width="512" xmlns="http://www.w3.org/2000/svg" xmlns:xlink="http://www.w3.org/1999/xlink"><linearGradient id="SVGID_1_" gradientUnits="userSpaceOnUse" x1="218.107" x2="218.107" y1="470" y2="512.012"><stop offset="0" stop-color="#ffe177"/><stop offset="1" stop-color="#fe9738"/></linearGradient><linearGradient id="SVGID_2_" gradientUnits="userSpaceOnUse" x1="287.655" x2="287.655" y1="519" y2="413.981"><stop offset="0" stop-color="#fe9738" stop-opacity="0"/><stop offset="1" stop-color="#fe7701"/></linearGradient><linearGradient id="lg1"><stop offset="0" stop-color="#ffdcbd"/><stop offset="1" stop-color="#ffa9b1"/></linearGradient><linearGradient id="SVGID_3_" gradientUnits="userSpaceOnUse" x1="42.035" x2="88.06" xlink:href="#lg1" y1="241.579" y2="287.604"/><linearGradient id="SVGID_4_" gradientTransform="matrix(-1 0 0 1 -1276.778 0)" gradientUnits="userSpaceOnUse" x1="-1708.359" x2="-1662.334" xlink:href="#lg1" y1="241.579" y2="287.604"/><linearGradient id="SVGID_5_" gradientUnits="userSpaceOnUse" x1="63.497" x2="410.12" xlink:href="#lg1" y1="261.5" y2="261.5"/><linearGradient id="lg2"><stop offset="0" stop-color="#fe646f"/><stop offset="1" stop-color="#fb2b3a"/></linearGradient><linearGradient id="SVGID_6_" gradientUnits="userSpaceOnUse" x1="236.808" x2="236.808" xlink:href="#lg2" y1="367" y2="428.131"/><linearGradient id="lg3"><stop offset="0" stop-color="#537983"/><stop offset="1" stop-color="#3e5959"/></linearGradient><linearGradient id="SVGID_7_" gradientUnits="userSpaceOnUse" x1="125.975" x2="199.531" xlink:href="#lg3" y1="235.302" y2="235.302"/><linearGradient id="SVGID_8_" gradientUnits="userSpaceOnUse" x1="274.086" x2="347.642" xlink:href="#lg3" y1="235.302" y2="235.302"/><linearGradient id="SVGID_9_" gradientUnits="userSpaceOnUse" x1="300.892" x2="413.655" xlink:href="#lg3" y1="43.083" y2="155.847"/><linearGradient id="SVGID_10_" gradientTransform="matrix(1 0 -.177 1 28.889 0)" gradientUnits="userSpaceOnUse" x1="114.75" x2="259.639" xlink:href="#lg3" y1="47.075" y2="191.964"/><linearGradient id="SVGID_11_" gradientUnits="userSpaceOnUse" x1="236.808" x2="236.808" y1="246.667" y2="343.333"><stop offset="0" stop-color="#ffc2b5" stop-opacity="0"/><stop offset="1" stop-color="#f89580"/></linearGradient><linearGradient id="SVGID_12_" gradientUnits="userSpaceOnUse" x1="231.689" x2="327.684" y1="292.586" y2="555.073"><stop offset="0" stop-color="#18cefb" stop-opacity="0"/><stop offset=".8231" stop-color="#0590fc" stop-opacity=".823"/><stop offset="1" stop-color="#0182fc"/></linearGradient><linearGradient id="SVGID_13_" gradientUnits="userSpaceOnUse" x1="99.822" x2="449.21" y1="165.691" y2="515.08"><stop offset="0" stop-color="#edf5ff"/><stop offset="1" stop-color="#c7e9ff" stop-opacity="0"/></linearGradient><linearGradient id="lg4"><stop offset="0" stop-color="#fff" stop-opacity="0"/><stop offset=".3432" stop-color="#cde0f3" stop-opacity=".343"/><stop offset=".7872" stop-color="#92bae4" stop-opacity=".787"/><stop offset="1" stop-color="#7bacdf"/></linearGradient><linearGradient id="SVGID_14_" gradientUnits="userSpaceOnUse" x1="244.981" x2="244.981" xlink:href="#lg4" y1="280.156" y2="158.071"/><linearGradient id="lg5"><stop offset="0" stop-color="#18cefb"/><stop offset=".8231" stop-color="#0590fc"/><stop offset="1" stop-color="#0182fc"/></linearGradient><linearGradient id="SVGID_15_" gradientUnits="userSpaceOnUse" x1="236.808" x2="236.808" xlink:href="#lg5" y1="151.628" y2="193.869"/><linearGradient id="SVGID_16_" gradientUnits="userSpaceOnUse" x1="234.808" x2="234.808" xlink:href="#lg5" y1="189" y2="173"/><linearGradient id="SVGID_17_" gradientUnits="userSpaceOnUse" x1="352.829" x2="475.86" y1="352.829" y2="475.86"><stop offset="0" stop-color="#edf5ff"/><stop offset="1" stop-color="#c7e9ff"/></linearGradient><linearGradient id="SVGID_18_" gradientUnits="userSpaceOnUse" x1="414.504" x2="414.504" xlink:href="#lg4" y1="456.667" y2="503.338"/><linearGradient id="SVGID_19_" gradientUnits="userSpaceOnUse" x1="480.3" x2="412.446" y1="480.238" y2="412.385"><stop offset="0" stop-color="#7bacdf" stop-opacity="0"/><stop offset="1" stop-color="#7bacdf"/></linearGradient><linearGradient id="SVGID_20_" gradientUnits="userSpaceOnUse" x1="414.504" x2="414.504" xlink:href="#lg2" y1="392.5" y2="445.06"/><g><g><path d="m308.707 434.753c-44.52-28.316-99.278-28.316-143.797-.001-10.674 6.789-22.068 12.035-33.9 15.606-5.637 1.701-11.649 2.404-17.673 2.456-41.638.36-80.199 13.743-108.68 35.694-9.052 6.976-4.01 21.492 7.418 21.492h399.776c27.621 0 33.888-38.71 7.683-47.442-18.4-6.131-38.443-9.564-59.255-9.744-6.025-.052-12.037-.755-17.674-2.456-11.832-3.57-23.224-8.816-33.898-15.605z" fill="url(#SVGID_1_)"/><path d="m360.279 452.815c-6.025-.052-12.037-.755-17.674-2.456-11.831-3.57-23.224-8.816-33.898-15.605h-.001c-44.519-28.315-99.278-28.315-143.796 0-8.22 5.228-16.869 9.531-25.814 12.868l62.379 62.378h210.376c27.621 0 33.888-38.71 7.683-47.442-18.4-6.13-38.443-9.564-59.255-9.743z" fill="url(#SVGID_2_)"/><g><path d="m25.197 266.319c0-27.061 18.785-49.735 44.026-55.693 6.747-1.593 13.197 3.625 13.197 10.557v90.272c0 6.932-6.45 12.15-13.197 10.557-25.241-5.959-44.026-28.632-44.026-55.693z" fill="url(#SVGID_3_)"/><path d="m448.419 266.319c0-27.061-18.785-49.735-44.026-55.693-6.747-1.593-13.197 3.625-13.197 10.557v90.272c0 6.932 6.45 12.15 13.197 10.557 25.242-5.959 44.026-28.632 44.026-55.693z" fill="url(#SVGID_4_)"/></g><path d="m236.808 471.5c-83.436 0-153.572-62.648-162.952-145.555l-9.24-81.674c-11.626-102.765 68.77-192.771 172.192-192.771 103.422 0 183.819 90.006 172.192 192.772l-9.24 81.674c-9.38 82.906-79.516 145.554-162.952 145.554z" fill="url(#SVGID_5_)"/><path d="m298.807 381.555c-.13-13.212-14.169-21.696-26.08-15.979-10.133 4.864-22.529 7.726-35.918 7.726s-25.785-2.862-35.918-7.726c-11.911-5.718-25.95 2.767-26.08 15.979-.001.094-.001.189-.001.283 0 23.076 27.758 41.783 62 41.783s62-18.707 62-41.783c-.002-.094-.002-.189-.003-.283z" fill="url(#SVGID_6_)"/><g><path d="m187.031 259.94c-6.903 0-12.5-5.597-12.5-12.5 0-6.494-5.284-11.778-11.778-11.778-6.495 0-11.778 5.284-11.778 11.778 0 6.903-5.597 12.5-12.5 12.5s-12.5-5.597-12.5-12.5c0-20.279 16.499-36.778 36.778-36.778s36.778 16.499 36.778 36.778c0 6.904-5.597 12.5-12.5 12.5z" fill="url(#SVGID_7_)"/><path d="m335.142 259.94c-6.903 0-12.5-5.597-12.5-12.5 0-6.494-5.284-11.778-11.778-11.778-6.495 0-11.778 5.284-11.778 11.778 0 6.903-5.597 12.5-12.5 12.5s-12.5-5.597-12.5-12.5c0-20.279 16.499-36.778 36.778-36.778s36.778 16.499 36.778 36.778c0 6.904-5.597 12.5-12.5 12.5z" fill="url(#SVGID_8_)"/></g><path d="m333.92 52.388c-11.597 11.597-18.112 27.326-18.112 43.727v14.885c0 25.932 10.301 50.801 28.638 69.138l29.075 29.075c7.227 7.227 17.029 11.287 27.25 11.287 21.284 0 38.537-17.254 38.537-38.537v-43.599c0-32.247-12.81-63.173-35.612-85.976-19.268-19.268-50.508-19.268-69.776 0z" fill="url(#SVGID_9_)"/><path d="m52.411 202.179c19.618 24.16 58.242 24.16 86.268 0 36.602-31.552 81.883-49.278 125.881-49.278 8.319 0 15.713 3.351 20.557 9.317 10.087 12.423 29.946 12.423 44.357 0l5.912-5.096c32.503-28.019 40.409-73.447 17.657-101.466-28.936-35.636-73.109-55.656-122.802-55.656-46.502 0-94.36 18.735-133.046 52.083-19.822 17.087-47.407 13.473-55.918-7.326-2.48-6.06-12.084-3.518-13.309 3.523l-4.956 28.478c-8.187 47.042 2.389 92.158 29.399 125.421z" fill="url(#SVGID_10_)"/><path d="m246.037 337.944h-18.458c-15.383 0-27.029-13.901-24.335-29.046l10.581-84.398h45.966l10.581 84.398c2.694 15.145-8.952 29.046-24.335 29.046z" fill="url(#SVGID_11_)"/><path d="m461.321 388.401c-4.874 46.432-45.753 85.133-95.563 88.652-85.904 6.085-171.996 6.085-257.9 0-55.621-3.931-100.304-51.937-95.724-105.571l17.157-201.052c137.22 26.204 277.813 26.204 415.033 0l17.157 201.052c.492 5.721.421 11.382-.16 16.919z" fill="url(#SVGID_12_)"/><path d="m461.321 388.401c-4.874 46.432-45.753 85.133-95.563 88.652-85.904 6.085-171.996 6.085-257.9 0-55.621-3.931-100.304-51.937-95.724-105.571l17.157-201.052c137.22 26.204 277.813 26.204 415.033 0l17.157 201.052c.492 5.721.421 11.382-.16 16.919z" fill="url(#SVGID_13_)"/><path d="m461.318 388.4c-4.87 46.43-45.75 85.13-95.56 88.65-13.91.99-27.83 1.82-41.76 2.48l-295.84-295.85 1.13-13.25c137.22 26.2 277.82 26.2 415.04 0l17.15 201.05c.49 5.72.42 11.38-.16 16.92z" fill="url(#SVGID_14_)"/><g><path d="m443.035 131.157c-136.384 24.61-276.072 24.61-412.456-.001l-.085-.015c-4.165-.761-8.222 1.636-8.928 5.454l-2.508 24.638c-.654 6.428 1.17 12.863 5.099 17.991 3.852 5.027 9.448 8.418 15.681 9.546 129.459 23.433 264.483 23.435 393.941 0 6.232-1.128 11.828-4.519 15.68-9.546 3.93-5.128 5.753-11.563 5.099-17.991l-2.508-24.638c-.706-3.817-4.763-6.214-8.928-5.454z" fill="url(#SVGID_15_)"/><path d="m192.663 163.537c27.33 5.441 56.961 5.441 84.291 0 7.855-1.564 15.521 2.96 15.521 9.154v3.75c0 4.148-3.536 7.824-8.73 9.049-31.406 7.409-66.468 7.409-97.873 0-5.194-1.225-8.73-4.9-8.73-9.049v-3.75c-.001-6.194 7.666-10.718 15.521-9.154z" fill="url(#SVGID_16_)"/></g></g><g><circle cx="414.504" cy="414.504" fill="url(#SVGID_17_)" r="95.496"/><path d="m320.613 432c8.219 44.384 47.127 78 93.891 78s85.672-33.616 93.891-78z" fill="url(#SVGID_18_)"/><path d="m368.164 461.472 48.501 48.5c51.065-1.134 92.24-42.35 93.31-93.43l-48.44-48.44z" fill="url(#SVGID_19_)"/><path d="m461.188 429.196-14.629-14.629 14.336-14.336c8.802-8.802 9.289-23.178.639-32.129-4.453-4.608-10.375-6.922-16.308-6.922-5.8 0-11.6 2.22-16.03 6.64l-14.692 14.692-14.631-14.631c-8.851-8.851-23.2-8.852-32.052-.002-8.854 8.851-8.855 23.205-.003 32.057l14.631 14.631-14.568 14.568c-8.851 8.851-8.852 23.2-.003 32.052 8.851 8.854 23.205 8.855 32.057.002l14.568-14.568 14.273 14.273c8.802 8.802 23.179 9.289 32.129.639 4.608-4.453 6.922-10.375 6.922-16.308.001-5.799-2.219-11.599-6.639-16.029z" fill="url(#SVGID_20_)"/></g></g></svg>