<svg xmlns="http://www.w3.org/2000/svg" xmlns:xlink="http://www.w3.org/1999/xlink" viewBox="0 0 100.05 191.03"><defs><style>.cls-1{fill:#ffe8af;}.cls-2{fill:#f6a426;}.cls-3{fill:#2d2505;}.cls-4{fill:#695625;}.cls-5{fill:#003b28;}.cls-6{fill:#ff931a;}.cls-7{fill:#ee7327;}.cls-8{fill:#f3aa96;}.cls-9{fill:#ed6927;}.cls-10{fill:#d04c20;}.cls-11{fill:#f195a2;}.cls-12{fill:url(#Degradado_sin_nombre_3);}.cls-13{fill:none;stroke:#4b2b19;stroke-miterlimit:10;stroke-width:0.39px;}.cls-14{fill:url(#Degradado_sin_nombre_3-2);}.cls-15{fill:#a56052;}.cls-16{fill:#ee7527;}.cls-17{fill:#f08028;}.cls-18{fill:#fbb924;}</style><linearGradient id="Degradado_sin_nombre_3" x1="50.01" y1="15.26" x2="49.99" y2="18.14" gradientUnits="userSpaceOnUse"><stop offset="0" stop-color="#da7570"/><stop offset="1" stop-color="#da7570" stop-opacity="0"/></linearGradient><linearGradient id="Degradado_sin_nombre_3-2" x1="42.72" y1="18.01" x2="43.83" y2="20.36" xlink:href="#Degradado_sin_nombre_3"/></defs><g id="Layer_2" data-name="Layer 2"><g id="OBJECTS"><path class="cls-1" d="M100.05,187c0-2.22-22.4-4-50-4s-50,1.8-50,4,22.4,4,50,4S100.05,189.23,100.05,187Z"/><path class="cls-2" d="M59.93,39.67C62,41,63.47,45.1,66.84,51.9c9.54,19.24,6.26,19.47,6.26,19.47s-7.71-11.88-9.68-14.79-5.81-8.77-5.75-11.45S59.93,39.67,59.93,39.67Z"/><path class="cls-3" d="M63.51,172.66s.39,12.7.56,13.61c1.25.68,3.35-.11,3.35-.11L66.91,183a34.26,34.26,0,0,0,3.86,2.89c1.19.63,10.26,0,11.11,0s.29-3.28-2.55-3.51-6.52-2.55-8.39-4.37-3.24-5.67-3.24-5.67Z"/><path class="cls-3" d="M22.35,173.41s-3.62,12.18-3.75,13.1c1,1,3.21.94,3.21.94l.52-3.17a33.93,33.93,0,0,0,2.75,4c.93,1,9.74.14,10.55.4s1.8-2.1-.74-3.26c-1.85-.84-4.82-.78-7.17-4.57-1.37-2.22-1.28-6.4-1.28-6.4Z"/><path class="cls-4" d="M30.9,106s0,33.64,0,35.08-9.68,33.69-9.68,33.69,2.6,3.61,5.78,1.3,10.12-27.33,12.58-31.81,8.44-36,8.44-36Z"/><path class="cls-4" d="M49.45,108.16s6.36,27,6.65,30.07,0,9,1.44,13.73,5.21,21.4,5.21,21.4,4.91,1.59,6.36-1.45c-.87-10.4-4.31-66.08-4.31-66.08Z"/><path class="cls-5" d="M47.89.33c-7.12-1.81-20.58,4-18,12.08,1.07,3.38-.37,5.88-4.7,9-7.22,5.15-7.3,9.46-1.5,13.93S19.48,50.18,25.5,50.13c18.42-.16,27.39-7,33.2-14,9.94-12-4.43-9.95-.75-14.78,4.65-6.09,2.12-9.68-1.48-10.58C51.56,9.52,54.39,2,47.89.33Z"/><path class="cls-6" d="M27.64,106.47c14.91,5.65,36.75,4.19,40.88-1.8-4.56-22.83-4.95-36-5.72-40.31A211.57,211.57,0,0,1,60,41.1s-19.81-1.51-24.21.84c-1.58.84-4.3,3.76-4.42,10.63C30.91,76.36,29.85,89.83,27.64,106.47Z"/><path class="cls-7" d="M60.87,61.24c.05.77-4.6,1.65-10.37,1.95S40,63.11,40,62.34s4.6-1.66,10.38-2S60.83,60.46,60.87,61.24Z"/><path class="cls-8" d="M35.13,78.08s3.64.07,4.5.86c-1.07,4.77-4.42,5.77-4.42,5.77l-2.57-3.06Z"/><path class="cls-2" d="M36.83,42.74c3,2.1,3.18,5.89-.23,10.72s-9.12,12.93-9.7,14-1.09,2.23-.07,3C29.06,72.1,36,76.68,36,76.68s0,5.36-4.28,6.21c-2.61-.58-13.3-7.46-17.18-10.51-2.2-1.74-2.14-3.21-1-5.92S25.52,47.33,27.64,44.62,33.42,40.32,36.83,42.74Z"/><path class="cls-8" d="M63.06,54.27c-.38-.12-2.5-4.46-2.5-4.46s-5.15-3-5.9-3.28-1.54.95-.68,1.36,4.36,2.55,4.36,2.55a40.59,40.59,0,0,0-4.56-1,24.35,24.35,0,0,0-3.25,1.36c-.4.2-.61,1.43.17,1.35l3.57-.37s-3,.65-3.6.83-.24,1.34.41,1.42a6.86,6.86,0,0,1,1,.18,6.19,6.19,0,0,1-.73.52c-.57.37-.49.87.32,1l11.75,1.77Z"/><path class="cls-9" d="M32.45,42.45c-1.22-2.88-.16-7.74,4-8.73,1.06-3.94,1.82-7.89,5.84-6s7.86,1.17,11.08-.32c2.72-1.26,3.52-.27,4.51,2.34.25.68.89,2,1.65,3.63,3,.52,5.45,4.7,3,7.73s-5.69,6-15.37,6A27.19,27.19,0,0,1,32.45,42.45Z"/><path class="cls-10" d="M40.31,27.21c.33,3.11,4.31,8,8.51,6.73s5.15-5,4.57-6.53S40.31,27.21,40.31,27.21Z"/><path class="cls-10" d="M37.13,34.25c4.08,3.88,13.11,6.46,20.13.37C51.18,36.88,40.64,36.44,37.13,34.25Z"/><path class="cls-8" d="M51.23,11.07c-3.55,4.92-7.73,8.45-13.12,8.8.19,1.75.36,2.69.55,3.7s1.47,4.51,3.72,6.15c3.56,2.61,7.37,2.93,10.18-.56,3-3.69,1.94-8.44,1.18-11.6C52.5,12.45,51.23,11.07,51.23,11.07Z"/><path class="cls-11" d="M54.09,19.19c0,.15-.36.4-.91.57s-1,.17-1.08,0,.37-.4.92-.57S54.05,19,54.09,19.19Z"/><path class="cls-12" d="M48.19,16.08c0,.8-.12,3.68,2.12,3.68s1.31-3.4,1.31-3.4S49.22,16.1,48.19,16.08Z"/><path class="cls-5" d="M48.69,15.85c2.4-.27,4.22.77,2,.88S47.44,16,48.69,15.85Z"/><path class="cls-13" d="M51,19.44c-.75-1.21-2.1-.6-2,.48"/><path class="cls-14" d="M44.47,17.76c.48.65,1.78,2.54-.09,3.77s-3-2.28-3-2.28A18.24,18.24,0,0,0,44.47,17.76Z"/><path class="cls-13" d="M43.64,21.65c0-1.42,1.42-1.66,1.9-.68"/><path class="cls-11" d="M43,22.51c.05.15-.36.41-.91.57s-1,.18-1.08,0,.36-.41.91-.57S43,22.36,43,22.51Z"/><path class="cls-15" d="M47.23,21.89a2.4,2.4,0,0,1,.81-.56,1.26,1.26,0,0,1,1-.06.67.67,0,0,1,.2.95,2.32,2.32,0,0,1-.64.75,4.11,4.11,0,0,0,.53-.8c.14-.28.1-.64-.17-.74a1.19,1.19,0,0,0-.89,0A4.64,4.64,0,0,0,47.23,21.89Z"/><path class="cls-15" d="M47.05,25.68a1,1,0,0,0,.66.64,1.57,1.57,0,0,0,.91.06,4.36,4.36,0,0,0,1.69-.91,4.29,4.29,0,0,1-.72.69,2.8,2.8,0,0,1-.93.42,1.63,1.63,0,0,1-1-.12A1,1,0,0,1,47.05,25.68Z"/><path class="cls-16" d="M33.33,86s4.43-2.06,7.29-9.16c4.4,2.76,6.7,8.26,4.94,11.16C43.66,91.12,37,89.37,33.33,86Z"/><path class="cls-8" d="M39.44,21.83A2,2,0,0,1,38,24.2c-.95.08-1.84-.86-2-2.1a2,2,0,0,1,1.47-2.37C38.42,19.65,39.3,20.59,39.44,21.83Z"/><path class="cls-5" d="M34.49,22.45c3.42-.49,6-1.67,7.71-3.86a18.69,18.69,0,0,0-7.26,1.55Z"/><path class="cls-17" d="M55.28,38.36c-5.76,1.94-9.44,2-8.92,4.75s6.07,2.37,10.49-.53S59.93,36.8,55.28,38.36Z"/><path class="cls-10" d="M38.15,36.39c2,2,7.16,4.18,12.71,2.28C42,42.84,39.84,39.06,38.15,36.39Z"/><path class="cls-18" d="M66.08,72c-3.26-7.5-5.35-13.18-6-14.58s1.52-6.76,2.7-5.2S72.63,65.8,72.63,65.8C76.55,73,69.34,79.53,66.08,72Z"/></g></g></svg>