<svg width="583" height="389" viewBox="0 0 583 389" fill="none" xmlns="http://www.w3.org/2000/svg">
<path d="M583 158.5C583 183.629 452.491 204 291.5 204C130.509 204 0 183.629 0 158.5C0 133.371 130.509 113 291.5 113C452.491 113 583 133.371 583 158.5Z" fill="#F12711" fill-opacity="0.6"/>
<g clip-path="url(#clip0)">
<path d="M400 380.794C400 376.273 354.327 372.648 298.051 372.648C241.775 372.648 196.102 376.314 196.102 380.794C196.102 385.274 241.775 388.939 298.051 388.939C354.327 388.939 400 385.335 400 380.794Z" fill="#FFE8AF"/>
<path d="M318.196 80.7812C322.417 83.4896 325.414 91.8385 332.286 105.686C351.737 144.865 345.05 145.333 345.05 145.333C345.05 145.333 329.329 121.141 325.312 115.216C321.295 109.29 313.466 97.357 313.588 91.8996C313.71 86.4423 318.196 80.7812 318.196 80.7812Z" fill="#F6A426"/>
<path d="M325.496 351.593C325.496 351.593 326.291 377.454 326.637 379.307C329.186 380.692 333.468 379.083 333.468 379.083L332.428 372.649C334.91 374.793 337.54 376.759 340.299 378.534C342.725 379.817 361.219 378.534 362.952 378.534C364.685 378.534 363.543 371.855 357.752 371.386C351.962 370.918 344.458 366.194 340.645 362.487C336.832 358.781 334.039 350.941 334.039 350.941L325.496 351.593Z" fill="#2D2505"/>
<path d="M241.571 353.12C241.571 353.12 234.19 377.923 233.925 379.796C235.964 381.832 240.47 381.71 240.47 381.71L241.531 375.255C243.203 378.1 245.076 380.822 247.138 383.4C249.034 385.437 266.998 383.685 268.649 384.215C270.301 384.744 272.319 379.939 267.14 377.576C263.368 375.866 257.312 375.988 252.521 368.27C249.727 363.75 249.911 355.238 249.911 355.238L241.571 353.12Z" fill="#2D2505"/>
<path d="M259.004 215.852C259.004 215.852 259.004 284.354 259.004 287.286C259.004 290.218 239.267 355.89 239.267 355.89C239.267 355.89 244.568 363.241 251.052 358.537C257.536 353.833 271.687 302.884 276.703 293.761C281.719 284.639 293.912 220.454 293.912 220.454L259.004 215.852Z" fill="#695625"/>
<path d="M296.828 220.25C296.828 220.25 309.796 275.23 310.387 281.482C310.978 287.733 310.387 299.809 313.323 309.441C316.259 319.073 323.946 353.018 323.946 353.018C323.946 353.018 333.957 356.256 336.914 350.066C335.14 328.888 328.126 215.505 328.126 215.505L296.828 220.25Z" fill="#695625"/>
<path d="M293.647 0.672207C279.129 -3.01355 251.685 8.81752 256.945 25.2711C259.127 32.1539 256.191 37.2447 247.362 43.598C232.641 54.0851 232.478 62.8617 244.304 71.9641C256.13 81.0665 235.72 102.183 247.994 102.081C285.552 101.756 303.842 87.8271 315.688 73.5728C335.956 49.1368 306.656 53.3113 314.159 43.4758C323.64 31.0746 318.482 23.7642 311.141 21.9315C301.13 19.3861 306.9 4.07288 293.647 0.672207Z" fill="#003B28"/>
<path d="M252.358 216.808C282.759 228.313 327.29 225.34 335.711 213.143C326.413 166.653 325.618 139.835 324.048 131.058C321.271 115.387 319.365 99.5747 318.339 83.6932C318.339 83.6932 277.947 80.6183 268.975 85.4037C265.754 87.1142 260.208 93.0603 259.963 107.05C259.025 155.494 256.864 182.924 252.358 216.808Z" fill="#FF931A"/>
<path d="M320.113 124.705C320.215 126.273 310.734 128.065 298.969 128.676C287.204 129.287 277.559 128.513 277.559 126.945C277.559 125.377 286.939 123.565 298.724 122.873C310.509 122.18 320.031 123.117 320.113 124.705Z" fill="#EE7327"/>
<path d="M267.63 158.997C267.63 158.997 275.051 159.14 276.805 160.748C274.623 170.462 267.793 172.498 267.793 172.498L262.552 166.267L267.63 158.997Z" fill="#F3AA96"/>
<path d="M271.096 87.0327C277.213 91.309 277.58 99.0267 270.627 108.862C263.674 118.698 252.031 135.192 250.849 137.371C249.666 139.55 248.626 141.912 250.706 143.48C255.253 146.819 269.403 156.146 269.403 156.146C269.403 156.146 269.403 167.06 260.676 168.791C255.355 167.61 233.558 153.6 225.647 147.39C221.161 143.846 221.283 140.853 223.608 135.334C225.932 129.816 248.035 96.3795 252.357 90.861C256.68 85.3426 264.143 82.1048 271.096 87.0327Z" fill="#F6A426"/>
<path d="M324.578 110.512C323.803 110.267 319.481 101.43 319.481 101.43C319.481 101.43 308.98 95.3207 307.451 94.7505C305.921 94.1804 304.311 96.6851 306.064 97.52C307.818 98.3548 314.954 102.713 314.954 102.713C311.897 101.856 308.792 101.176 305.656 100.676C303.383 101.438 301.169 102.364 299.03 103.446C298.214 103.853 297.786 106.358 299.376 106.195L306.656 105.441C306.656 105.441 300.539 106.765 299.315 107.131C298.092 107.498 298.826 109.86 300.151 110.023C300.839 110.095 301.521 110.217 302.19 110.39C301.72 110.778 301.223 111.132 300.702 111.448C299.539 112.202 299.703 113.22 301.354 113.485L325.312 117.089L324.578 110.512Z" fill="#F3AA96"/>
<path d="M262.165 86.4428C259.677 80.5782 261.839 70.6816 270.321 68.6657C272.482 60.6425 274.032 52.599 282.228 56.4477C290.425 60.2964 298.255 58.8302 304.82 55.7961C310.366 53.2303 311.998 55.2463 314.016 60.5611C314.526 61.9458 315.831 64.6337 317.381 67.9529C323.497 69.0118 328.493 77.5237 323.497 83.6938C318.502 89.8639 311.896 95.9118 292.158 95.9118C281.455 95.7137 271.038 92.425 262.165 86.4428Z" fill="#ED6927"/>
<path d="M278.191 55.4089C278.864 61.7419 286.979 71.6995 295.543 69.1134C304.107 66.5273 306.044 58.9318 304.861 55.8162C303.679 52.7006 278.191 55.4089 278.191 55.4089Z" fill="#D04C20"/>
<path d="M271.708 69.7441C280.027 77.6451 298.439 82.8988 312.752 70.4976C300.355 75.0997 278.864 74.2037 271.708 69.7441Z" fill="#D04C20"/>
<path d="M300.457 22.543C293.219 32.5617 284.696 39.75 273.706 40.4627C274.093 44.0262 274.44 45.9404 274.827 47.9971C275.215 50.0538 277.825 57.1809 282.412 60.5205C289.671 65.8353 297.44 66.487 303.169 59.3802C309.286 51.8661 307.125 42.1935 305.575 35.7587C303.047 25.3531 300.457 22.543 300.457 22.543Z" fill="#F3AA96"/>
<path d="M306.289 39.0769C306.289 39.3823 305.555 39.8914 304.433 40.2376C303.312 40.5838 302.394 40.5838 302.231 40.2376C302.068 39.8914 302.985 39.423 304.107 39.0769C305.228 38.7307 306.207 38.69 306.289 39.0769Z" fill="#F195A2"/>
<path d="M294.259 32.7441C294.259 34.3732 294.014 40.2378 298.581 40.2378C303.149 40.2378 301.252 33.3143 301.252 33.3143C301.252 33.3143 296.359 32.7849 294.259 32.7441Z" fill="url(#paint0_linear)"/>
<path d="M295.278 32.2763C300.172 31.7265 303.883 33.8443 299.356 34.0683C294.83 34.2923 292.729 32.5818 295.278 32.2763Z" fill="#003B28"/>
<path d="M299.988 39.5863C298.459 37.1223 295.706 38.3645 295.91 40.5637" stroke="#4B2B19" stroke-width="0.39" stroke-miterlimit="10"/>
<path d="M286.674 36.165C287.652 37.4887 290.303 41.3373 286.49 43.842C282.677 46.3467 280.373 39.1992 280.373 39.1992C282.564 38.3877 284.674 37.3718 286.674 36.165Z" fill="url(#paint1_linear)"/>
<path d="M284.981 44.0864C284.981 41.1949 287.877 40.7061 288.855 42.7017" stroke="#4B2B19" stroke-width="0.39" stroke-miterlimit="10"/>
<path d="M283.676 45.8374C283.778 46.1428 282.942 46.6723 281.821 46.9981C280.699 47.3239 279.782 47.3646 279.619 46.9981C279.456 46.6315 280.353 46.1632 281.474 45.8374C282.596 45.5116 283.676 45.5319 283.676 45.8374Z" fill="#F195A2"/>
<path d="M292.301 44.5753C292.767 44.0853 293.329 43.697 293.953 43.435C294.266 43.2765 294.609 43.1838 294.959 43.1628C295.31 43.1418 295.661 43.1928 295.992 43.3128C296.149 43.4099 296.285 43.538 296.392 43.6892C296.498 43.8405 296.573 44.0118 296.611 44.1927C296.649 44.3736 296.65 44.5604 296.614 44.7417C296.577 44.923 296.504 45.095 296.399 45.2473C296.079 45.8439 295.634 46.3647 295.094 46.7746C295.517 46.2755 295.88 45.7288 296.175 45.1455C296.461 44.5753 296.379 43.8422 295.828 43.6386C295.246 43.4042 294.596 43.4042 294.014 43.6386C293.412 43.891 292.838 44.2049 292.301 44.5753Z" fill="#A56052"/>
<path d="M291.934 52.2929C292.038 52.6018 292.214 52.8813 292.448 53.1081C292.682 53.3349 292.967 53.5022 293.28 53.5961C293.873 53.8193 294.518 53.8618 295.135 53.7183C296.407 53.3639 297.585 52.7309 298.581 51.8652C298.148 52.389 297.655 52.8605 297.113 53.2703C296.539 53.669 295.896 53.9589 295.217 54.1256C294.528 54.2611 293.815 54.1756 293.178 53.8812C292.85 53.7471 292.563 53.5301 292.345 53.2516C292.127 52.9731 291.985 52.6427 291.934 52.2929Z" fill="#A56052"/>
<path d="M263.959 175.124C263.959 175.124 272.992 170.93 278.824 156.472C287.795 162.092 292.485 173.292 288.896 179.197C285.022 185.55 271.443 181.987 263.959 175.124Z" fill="#EE7527"/>
<path d="M276.418 44.4539C276.648 45.4814 276.47 46.5579 275.923 47.4577C275.376 48.3575 274.501 49.0106 273.481 49.28C271.544 49.4429 269.73 47.5288 269.403 45.0037C269.175 43.9679 269.361 42.8841 269.921 41.9829C270.481 41.0816 271.37 40.434 272.401 40.1776C274.338 40.0147 276.132 41.9289 276.418 44.4539Z" fill="#F3AA96"/>
<path d="M266.324 45.7157C273.298 44.7179 278.558 42.315 282.045 37.8555C276.949 37.9085 271.915 38.9817 267.242 41.0118L266.324 45.7157Z" fill="#003B28"/>
<path d="M308.715 78.1134C296.97 82.0639 289.467 82.1861 290.527 87.786C291.588 93.3859 302.904 92.6121 311.916 86.7067C320.928 80.8014 318.196 74.9368 308.715 78.1134Z" fill="#F08028"/>
<path d="M273.787 74.1016C277.865 78.1742 288.386 82.6134 299.703 78.7444C281.637 87.2359 277.233 79.5386 273.787 74.1016Z" fill="#D04C20"/>
<path d="M330.736 146.616C324.089 131.344 319.827 119.777 318.502 116.927C317.177 114.076 321.601 103.161 324.007 106.338C326.413 109.514 344.091 133.991 344.091 133.991C352.084 148.653 337.383 161.95 330.736 146.616Z" fill="#FBB924"/>
</g>
<defs>
<linearGradient id="paint0_linear" x1="297.97" y1="31.0744" x2="297.929" y2="36.939" gradientUnits="userSpaceOnUse">
<stop stop-color="#DA7570"/>
<stop offset="1" stop-color="#DA7570" stop-opacity="0"/>
</linearGradient>
<linearGradient id="paint1_linear" x1="626.888" y1="184.014" x2="636.07" y2="203.221" gradientUnits="userSpaceOnUse">
<stop stop-color="#DA7570"/>
<stop offset="1" stop-color="#DA7570" stop-opacity="0"/>
</linearGradient>
<clipPath id="clip0">
<rect width="204" height="389" fill="white" transform="translate(196)"/>
</clipPath>
</defs>
</svg>
