<svg id="Capa_1" enable-background="new 0 0 512 512" height="512" viewBox="0 0 512 512" width="512" xmlns="http://www.w3.org/2000/svg"><path d="m398.696 313.069h-25.815c-8.441 0-11.327-11.247-3.929-15.312 14.959-8.219 23.59-24.555 21.948-41.544l-13.368-138.356c-1.591-16.468-6.408-31.907-13.783-45.722h6.161c24.563 0 44.475-19.912 44.475-44.475v-20.16h-158.386c-62.885 0-115.485 47.763-121.533 110.356l-13.368 138.356c-1.641 16.99 6.989 33.325 21.948 41.544 7.398 4.064 4.511 15.312-3.929 15.312h-25.815c-16.36 0-31.142 6.726-41.755 17.554v173.878h385.624v-132.956c0-32.295-26.18-58.475-58.475-58.475z" fill="#665e66"/><path d="m414.385 7.5h-40v.159c0 24.563-19.912 44.475-44.475 44.475-2.77 0-4.637 2.88-3.455 5.386 5.85 12.4 9.69 25.978 11.078 40.337l13.367 138.356c1.641 16.99-6.989 33.325-21.948 41.544-7.398 4.064-4.511 15.312 3.929 15.312h25.815c5.082 0 10.013.649 14.714 1.867 12.185-8.805 18.96-23.502 17.489-38.724l-13.368-138.356c-1.591-16.468-6.408-31.907-13.783-45.722h6.161c24.563 0 44.475-19.912 44.475-44.475v-20.159z" fill="#544f57"/><path d="m402.858 313.215c8.916 10.264 14.313 23.666 14.313 38.329v58.672c0 41.026-33.258 74.283-74.283 74.283h-271.341v20h385.624v-132.955c0-30.895-23.96-56.194-54.313-58.329z" fill="#544f57"/><path d="m346.166 180.546 2.434-33.046c3.987-54.143-37.146-100.082-91.431-100.747-54.562-.668-97.839 45.491-93.844 99.743l2.508 34.05c.308 4.18-1.596 8.25-5.076 10.585-4.831 3.241-8.01 8.753-8.01 15.007 0 9.974 8.085 18.059 18.06 18.059h24.388c4.635 0 8.577 3.379 9.287 7.958l5.561 35.873c1.04 6.708 6.814 11.656 13.602 11.656h64.71c6.788 0 12.562-4.948 13.602-11.656l5.561-35.873c.71-4.58 4.653-7.958 9.287-7.958h24.388c9.974 0 18.06-8.085 18.06-18.059 0-6.254-3.179-11.766-8.01-15.007-3.481-2.335-5.385-6.405-5.077-10.585z" fill="#f1f1f4"/><path d="m351.242 191.131c-3.48-2.335-5.384-6.405-5.076-10.585l2.434-33.047c3.31-44.949-24.478-84.244-65.073-96.673 20.414 18.664 32.304 46.385 30.073 76.673l-1.784 24.218c-.609 8.264 2.425 16.257 7.913 22.465 2.815 3.185 4.523 7.37 4.523 11.955 0 9.974-8.086 18.059-18.06 18.059h-24.388c-4.635 0-8.577 3.379-9.287 7.958l-5.561 35.873c-1.04 6.708-6.814 11.656-13.602 11.656h-44.606l1.293 8.344c1.04 6.708 6.814 11.656 13.602 11.656h64.71c6.788 0 12.562-4.948 13.602-11.656l5.561-35.873c.71-4.58 4.653-7.958 9.287-7.958h24.388c9.974 0 18.06-8.085 18.06-18.059.001-6.254-3.178-11.765-8.009-15.006z" fill="#dfdde2"/><path d="m355.425 217.229c-3.305 4.235-8.444 6.968-14.232 6.968h-24.388c-4.635 0-8.577 3.379-9.287 7.958l-5.561 35.873c-1.04 6.708-6.814 11.656-13.602 11.656h-64.71c-6.788 0-12.562-4.948-13.602-11.656l-5.561-35.873c-.71-4.58-4.653-7.958-9.287-7.958h-24.388c-5.788 0-10.927-2.733-14.232-6.968l-3.75 41.388c-.639 7.054 2.711 13.817 8.537 17.229l66.3 38.842c8.659 5.073 18.459 7.754 28.339 7.754s19.68-2.681 28.339-7.754l66.3-38.842c5.825-3.413 9.176-10.176 8.537-17.229z" fill="#e28086"/><path d="m31.239 72.146h46.611v113.244h-46.611z" fill="#f1f1f4" transform="matrix(-1 0 0 -1 109.088 257.536)"/><path d="m37.541 185.39h34.006v319.11h-34.006z" fill="#e2bcaf" transform="matrix(-1 0 0 -1 109.088 689.89)"/><path d="m133.385 129.057h-55.536v48.077h50.891z" fill="#8b818e"/><path d="m383.705 181.748c25.966 6.227 50.084 18.586 70.29 36.035-16.595-31.255-42.578-56.114-73.715-71.48z" fill="#8b818e"/><path d="m134.467 117.856c1.281-13.255 4.656-25.842 9.768-37.454h-66.386v48.654h55.535z" fill="#c6c1c8"/><path d="m466.489 199.546c-14.479-48.283-49.417-86.171-93.624-105.353 2.294 7.587 3.878 15.498 4.667 23.663l2.748 28.447c31.137 15.366 57.12 40.225 73.715 71.48 9.951 8.594 18.956 18.418 26.765 29.35z" fill="#c6c1c8"/><path d="m242.801 162.125c0 13.812-11.197 25.009-25.009 25.009s-25.009-11.197-25.009-25.009v-10h50.017v10z" fill="#e28086"/><path d="m269.198 162.125c0 13.812 11.197 25.009 25.009 25.009s25.009-11.197 25.009-25.009v-10h-50.017v10z" fill="#e28086"/><path d="m311.014 335.026c-34.448 18.927-75.58 18.927-110.028 0-3.629-1.994-8.189-.668-10.185 2.962-1.995 3.63-.668 8.19 2.962 10.185 38.967 21.41 85.502 21.413 124.474 0 3.63-1.995 4.957-6.555 2.962-10.185-1.996-3.63-6.555-4.956-10.185-2.962z"/><path d="m366.644 257.94-3.507-38.709c6.887-11.498 3.73-26.65-7.715-34.328-1.209-.811-1.889-2.27-1.776-3.806l2.434-33.046c2.106-28.607-7.232-55.801-26.295-76.574-28.129-30.65-70.229-38.916-105.663-27.072-3.928 1.313-6.048 5.563-4.735 9.491 1.313 3.929 5.563 6.049 9.491 4.735 29.884-9.991 65.762-3.264 89.855 22.988 16.236 17.691 24.186 40.893 22.387 65.33l-2.435 33.047c-.508 6.902 2.702 13.555 8.378 17.363 5.011 3.362 6.186 10.192 2.644 15.015-.136.161-.266.327-.388.498-1.938 2.335-4.862 3.825-8.127 3.825h-24.388c-8.391 0-15.413 6.018-16.699 14.31l-5.561 35.873c-.477 3.074-3.08 5.305-6.191 5.305h-9.421v-22.355c0-4.142-3.358-7.5-7.5-7.5s-7.5 3.358-7.5 7.5v22.354h-15.867v-22.354c0-4.142-3.358-7.5-7.5-7.5s-7.5 3.358-7.5 7.5v22.354h-9.421c-3.111 0-5.714-2.231-6.191-5.305l-5.561-35.873c-1.286-8.292-8.308-14.31-16.699-14.31h-24.388c-3.267 0-6.191-1.491-8.13-3.828-.121-.169-.248-.332-.382-.49-3.555-4.836-2.358-11.666 2.64-15.02 5.676-3.808 8.887-10.462 8.378-17.364l-2.508-34.05c-2.022-27.463 8.859-53.472 29.854-71.357 3.153-2.686 3.532-7.42.846-10.573-2.686-3.154-7.42-3.533-10.573-.846-24.313 20.711-37.43 52.067-35.087 83.877l2.507 34.05c.113 1.537-.567 2.995-1.775 3.805-11.442 7.678-14.604 22.828-7.715 34.329l-3.507 38.709c-.9 9.934 3.895 19.503 12.215 24.377l66.299 38.842c19.961 11.695 44.264 11.716 64.26 0l66.3-38.842c8.322-4.872 13.117-14.44 12.217-24.375zm-19.797 11.435-66.3 38.842c-15.136 8.868-33.629 9.061-49.095 0l-66.3-38.842c-3.33-1.951-5.236-5.908-4.858-10.082l2.614-28.846c2.489.81 5.144 1.249 7.899 1.249h24.388c.942 0 1.731.676 1.875 1.607l5.561 35.874c1.618 10.434 10.456 18.006 21.014 18.006h64.71c10.559 0 19.396-7.573 21.014-18.007l5.561-35.873c.144-.932.933-1.607 1.875-1.607h24.388c2.755 0 5.411-.438 7.899-1.249l2.614 28.846c.377 4.175-1.529 8.132-4.859 10.082z"/><path d="m30.041 192.794v311.706c0 4.142 3.358 7.5 7.5 7.5h419.63c4.142 0 7.5-3.358 7.5-7.5v-28.233c0-4.142-3.358-7.5-7.5-7.5s-7.5 3.358-7.5 7.5v20.733h-55.336v-83.966c0-4.142-3.358-7.5-7.5-7.5s-7.5 3.358-7.5 7.5v83.966h-246.672v-83.966c0-4.142-3.358-7.5-7.5-7.5s-7.5 3.358-7.5 7.5v83.966h-38.616v-92.869c0-4.142-3.358-7.5-7.5-7.5s-7.5 3.358-7.5 7.5v92.869h-19.006v-304.11h19.006v176.241c0 4.142 3.358 7.5 7.5 7.5s7.5-3.358 7.5-7.5v-35.324c9.399-8.558 21.451-13.239 34.255-13.239h25.815c7.267 0 13.362-4.729 15.168-11.768s-1.259-14.118-7.628-17.617c-12.346-6.784-19.449-20.228-18.094-34.25 18.707-193.616 11.106-114.949 13.368-138.356 5.654-58.517 54.819-103.577 114.068-103.577h150.885v12.659c0 20.435-16.538 36.975-36.976 36.975h-1.748c-5.618-9.689-12.472-18.612-20.418-26.573-2.926-2.932-7.675-2.936-10.606-.01s-2.936 7.675-.01 10.606c13.57 13.595 23.161 30.01 28.468 47.374.056.221.122.439.197.653 2.122 7.094 3.552 14.408 4.275 21.893 1.938 20.055 9.982 103.312 13.368 138.356 1.354 14.022-5.748 27.466-18.094 34.25-6.369 3.499-9.434 10.579-7.628 17.617s7.902 11.768 15.168 11.768h25.815c28.108 0 50.975 22.867 50.975 50.975v69.723c0 4.142 3.358 7.5 7.5 7.5s7.5-3.358 7.5-7.5v-69.723c0-36.379-29.596-65.975-65.975-65.975h-25.815c-.297 0-.512 0-.64-.496-.127-.496.062-.599.322-.742 17.606-9.673 27.734-28.843 25.802-48.839l-6.147-63.62c32.548 10.163 61.767 30.678 82.439 59.621 2.127 2.977 6.103 3.994 9.404 2.375 3.294-1.615 4.937-5.375 3.883-8.889l-14.271-47.588c-14.486-48.306-48.889-87.733-94.665-108.671-1.052-3.168-2.228-6.296-3.526-9.38 25.953-2.749 46.403-24.708 46.403-51.682v-20.157c0-4.142-3.358-7.5-7.5-7.5h-158.385c-49.869 0-94.994 28.561-116.56 72.902h-54.09v-.756c0-4.142-3.358-7.5-7.5-7.5h-46.61c-4.142 0-7.5 3.358-7.5 7.5v113.244c0 3.735 2.729 6.831 6.302 7.404zm359.067-33.117c13.377 8.081 25.376 17.98 35.728 29.437-10.881-5.614-22.35-10.095-34.171-13.323zm70.198 42.023 4.419 14.735c-1.239-1.154-2.496-2.289-3.768-3.406-16.614-30.705-41.637-55.349-72.607-71.546-2.427-25.118-2.543-27.463-3.572-33.567 36.335 20.12 63.474 53.59 75.528 93.784zm-337.377-32.066h-36.58v-33.077h39.776zm17.507 134.697c.26.143.449.247.322.742-.127.496-.342.496-.64.496h-25.815c-12.289 0-24.042 3.328-34.255 9.563v-122.338c3.573-.574 6.302-3.67 6.302-7.404v-.756h35.131l-6.846 70.858c-1.933 19.995 8.195 39.165 25.801 48.839zm-6.159-216.429c-3.185 9.39-5.305 19.19-6.275 29.233l-.427 4.421h-41.226v-33.654zm-94.538-8.256h31.61v98.244h-31.61z"/><path d="m246.338 200.502c-3.995-1.069-8.113 1.302-9.186 5.304l-2.613 9.75c-1.276 4.764 2.32 9.443 7.25 9.443 3.311 0 6.342-2.21 7.24-5.561l2.613-9.75c1.071-4.001-1.303-8.113-5.304-9.186z"/><path d="m260.357 209.688 2.613 9.75c.898 3.351 3.928 5.561 7.24 5.561 4.932 0 8.525-4.681 7.25-9.443l-2.613-9.75c-1.072-4.001-5.187-6.373-9.186-5.304-4.001 1.073-6.375 5.185-5.304 9.186z"/><path d="m242.801 144.625h-50.018c-4.142 0-7.5 3.358-7.5 7.5v10c0 17.925 14.583 32.509 32.509 32.509s32.509-14.583 32.509-32.509v-10c0-4.142-3.358-7.5-7.5-7.5zm-7.5 17.5c0 9.654-7.854 17.509-17.509 17.509s-17.509-7.854-17.509-17.509v-2.5h35.018z"/><path d="m294.206 194.634c17.925 0 32.509-14.583 32.509-32.509v-10c0-4.142-3.358-7.5-7.5-7.5h-50.018c-4.142 0-7.5 3.358-7.5 7.5v10c.001 17.925 14.584 32.509 32.509 32.509zm-17.508-35.009h35.018v2.5c0 9.654-7.854 17.509-17.509 17.509s-17.509-7.854-17.509-17.509z"/></svg>