<svg width="338" height="338" viewBox="0 0 338 338" fill="none" xmlns="http://www.w3.org/2000/svg">
<g clip-path="url(#clip0)">
<path d="M281.168 303.578V332.173C281.168 335.393 278.56 338 275.341 338H62.6594C59.44 338 56.8325 335.393 56.8325 332.173V303.578C56.8325 273.577 81.1525 249.271 111.161 249.264C121.766 249.257 131.103 243.801 136.479 235.527C141.879 227.228 141.322 220.012 141.322 214.179L141.432 213.909C115.283 203.086 96.8923 177.324 96.8923 147.264V144.985C86.5096 144.985 78.6833 136.78 78.6833 127.111V96.8399C78.4503 86.3006 78.931 49.1323 105.778 23.2537C136.996 -6.83487 186.466 -4.37301 222.301 11.7238C223.467 12.2482 223.43 13.9161 222.25 14.4041L212.906 18.2499C211.507 18.8253 211.806 20.8865 213.306 21.0468L217.844 21.5348C242.259 24.1423 262.572 38.7168 272.704 55.9862C272.799 56.1537 272.77 56.3722 272.631 56.5179C264.561 64.7484 260.045 75.8267 260.045 87.364V126.054C260.045 136.492 251.589 144.985 241.108 144.985V147.264C241.108 177.324 222.717 203.086 196.568 213.909L196.678 214.179C196.678 219.846 196.076 227.159 201.521 235.527C206.897 243.801 216.234 249.257 226.839 249.264C256.848 249.271 281.168 273.577 281.168 303.578V303.578Z" fill="#FFD6A6"/>
<path d="M272.701 55.9851C272.798 56.1504 272.769 56.3718 272.627 56.516C264.562 64.7494 260.045 75.8292 260.045 87.3635V126.054C260.045 136.491 251.591 144.984 241.108 144.984C241.108 122.943 241.12 111.425 241.116 105.234C241.113 101.325 237.336 98.5155 233.6 99.6648C221.858 103.277 208.16 105.139 193.765 102.011C168.433 96.5045 161.258 86.5769 140.595 81.6168C117.506 76.0812 96.5652 93.7658 96.7109 116.389C96.7546 123.825 96.8784 133.119 96.893 144.984C86.5102 144.984 78.684 136.779 78.684 127.11V96.8395C78.4509 86.3001 78.9316 49.1319 105.779 23.2533C136.994 -6.83602 186.469 -4.3727 222.298 11.7255C223.464 12.2492 223.433 13.9179 222.251 14.4044L212.906 18.2516C211.509 18.827 211.803 20.8861 213.305 21.0471L217.844 21.5343C242.261 24.1448 262.573 38.7142 272.701 55.9851V55.9851Z" fill="#42434D"/>
<path d="M233.6 99.6649C237.335 98.5155 241.112 101.322 241.115 105.23C241.12 111.636 241.107 123.738 241.107 147.264C241.107 177.323 222.716 203.086 196.568 213.909C149.285 233.536 96.8916 198.669 96.8916 147.264C96.8916 133.971 96.7576 124.526 96.7095 116.389C96.5638 93.7659 117.504 76.0813 140.593 81.6168C161.257 86.577 168.431 96.5045 193.764 102.011C208.16 105.139 221.857 103.278 233.6 99.6649V99.6649Z" fill="#FFDFBA"/>
<path d="M281.168 303.578V332.173C281.168 335.391 278.559 338 275.341 338H62.6594C59.4415 338 56.8325 335.391 56.8325 332.173V303.578C56.8325 273.577 81.1561 249.275 111.157 249.264C121.765 249.261 131.105 243.799 136.479 235.527C155.237 251.553 182.752 251.562 201.521 235.527C206.894 243.799 216.235 249.261 226.843 249.264C256.844 249.275 281.168 273.577 281.168 303.578V303.578Z" fill="#42434D"/>
<path d="M227.997 325.618H210.517C207.299 325.618 204.69 323.009 204.69 319.791C204.69 316.573 207.299 313.964 210.517 313.964H227.997C231.215 313.964 233.824 316.573 233.824 319.791C233.824 323.009 231.216 325.618 227.997 325.618Z" fill="white"/>
<path d="M140.508 266.859C137.815 267.706 134.926 268.173 131.829 268.2C101.75 268.465 77.2266 292.248 77.2266 322.328V327.803C77.2266 333.435 72.6612 338 67.0296 338H62.6594C59.4415 338 56.8325 335.391 56.8325 332.173V303.578C56.8325 273.577 81.1561 249.275 111.157 249.264C121.765 249.261 131.105 243.799 136.479 235.527C138.645 237.377 140.964 239.04 143.407 240.496C154.152 246.899 152.44 263.107 140.508 266.859Z" fill="#4D4E59"/>
<path d="M197.492 266.859C200.185 267.706 203.074 268.173 206.171 268.2C236.25 268.465 260.773 292.248 260.773 322.328V327.803C260.773 333.435 265.339 338 270.97 338H275.341C278.558 338 281.167 335.391 281.167 332.173V303.578C281.167 273.577 256.844 249.275 226.843 249.264C216.235 249.261 206.895 243.799 201.521 235.527C199.355 237.377 197.036 239.04 194.593 240.496C183.848 246.899 185.56 263.107 197.492 266.859V266.859Z" fill="#2C2C33"/>
<path d="M197.501 226.138C179.556 233.65 159.836 234.233 140.499 226.138C141.487 222.041 141.322 219.386 141.322 214.179L141.432 213.909C158.972 221.19 178.994 221.204 196.568 213.909L196.678 214.179C196.678 219.389 196.513 222.042 197.501 226.138Z" fill="#F7C388"/>
<path d="M222.25 14.4041C215.383 17.228 213.863 18.2229 210.709 17.7036C152.916 8.18975 107.408 38.408 101.182 97.4583C101.073 98.4948 100.807 99.5123 100.348 100.448C95.9155 109.47 96.7036 116.148 96.7976 127.25C96.8959 138.929 79.2958 139.677 78.7058 128.012C78.6687 127.284 78.6832 129.204 78.6832 96.8399C78.4502 86.3006 78.9309 49.1323 105.778 23.2537C136.996 -6.83487 186.466 -4.37301 222.301 11.7238C223.467 12.2482 223.43 13.9161 222.25 14.4041V14.4041Z" fill="#4D4E59"/>
<path d="M152.683 193.835C164.534 201.246 155.181 219.433 142.209 214.227C115.567 203.535 96.893 177.561 96.893 147.265C96.893 133.956 96.759 124.559 96.7109 116.39C96.665 109.077 98.8203 102.28 102.539 96.6179C107.214 89.5011 118.5 92.6025 118.562 101.823C118.61 110.02 118.744 119.375 118.744 132.698C118.743 159.281 132.719 181.35 152.683 193.835Z" fill="#FFEBD2"/>
<path d="M146.344 136.016C146.344 135.161 146.104 134.484 145.625 133.984C145.156 133.474 144.354 133.005 143.219 132.578C142.083 132.151 141.104 131.729 140.281 131.312C139.458 130.885 138.75 130.401 138.156 129.859C137.573 129.307 137.115 128.661 136.781 127.922C136.458 127.182 136.297 126.302 136.297 125.281C136.297 123.521 136.859 122.078 137.984 120.953C139.109 119.828 140.604 119.172 142.469 118.984V115.641H144.969V119.031C146.812 119.292 148.255 120.062 149.297 121.344C150.339 122.615 150.859 124.266 150.859 126.297H146.344C146.344 125.047 146.083 124.115 145.562 123.5C145.052 122.875 144.365 122.562 143.5 122.562C142.646 122.562 141.984 122.807 141.516 123.297C141.047 123.776 140.812 124.443 140.812 125.297C140.812 126.089 141.042 126.724 141.5 127.203C141.958 127.682 142.807 128.172 144.047 128.672C145.297 129.172 146.323 129.646 147.125 130.094C147.927 130.531 148.604 131.031 149.156 131.594C149.708 132.146 150.13 132.781 150.422 133.5C150.714 134.208 150.859 135.036 150.859 135.984C150.859 137.755 150.307 139.193 149.203 140.297C148.099 141.401 146.578 142.052 144.641 142.25V145.359H142.156V142.266C140.021 142.036 138.365 141.281 137.188 140C136.021 138.708 135.438 136.995 135.438 134.859H139.953C139.953 136.099 140.245 137.052 140.828 137.719C141.422 138.375 142.271 138.703 143.375 138.703C144.292 138.703 145.016 138.464 145.547 137.984C146.078 137.495 146.344 136.839 146.344 136.016Z" fill="#42434D"/>
<path d="M198.344 136.016C198.344 135.161 198.104 134.484 197.625 133.984C197.156 133.474 196.354 133.005 195.219 132.578C194.083 132.151 193.104 131.729 192.281 131.312C191.458 130.885 190.75 130.401 190.156 129.859C189.573 129.307 189.115 128.661 188.781 127.922C188.458 127.182 188.297 126.302 188.297 125.281C188.297 123.521 188.859 122.078 189.984 120.953C191.109 119.828 192.604 119.172 194.469 118.984V115.641H196.969V119.031C198.812 119.292 200.255 120.062 201.297 121.344C202.339 122.615 202.859 124.266 202.859 126.297H198.344C198.344 125.047 198.083 124.115 197.562 123.5C197.052 122.875 196.365 122.562 195.5 122.562C194.646 122.562 193.984 122.807 193.516 123.297C193.047 123.776 192.812 124.443 192.812 125.297C192.812 126.089 193.042 126.724 193.5 127.203C193.958 127.682 194.807 128.172 196.047 128.672C197.297 129.172 198.323 129.646 199.125 130.094C199.927 130.531 200.604 131.031 201.156 131.594C201.708 132.146 202.13 132.781 202.422 133.5C202.714 134.208 202.859 135.036 202.859 135.984C202.859 137.755 202.307 139.193 201.203 140.297C200.099 141.401 198.578 142.052 196.641 142.25V145.359H194.156V142.266C192.021 142.036 190.365 141.281 189.188 140C188.021 138.708 187.438 136.995 187.438 134.859H191.953C191.953 136.099 192.245 137.052 192.828 137.719C193.422 138.375 194.271 138.703 195.375 138.703C196.292 138.703 197.016 138.464 197.547 137.984C198.078 137.495 198.344 136.839 198.344 136.016Z" fill="#42434D"/>
</g>
<defs>
<clipPath id="clip0">
<rect width="338" height="338" fill="white"/>
</clipPath>
</defs>
</svg>
