<svg width="338" height="338" viewBox="0 0 338 338" fill="none" xmlns="http://www.w3.org/2000/svg">
<g clip-path="url(#clip0)">
<path d="M281.168 303.578V332.173C281.168 335.393 278.56 338 275.341 338H62.6594C59.44 338 56.8325 335.393 56.8325 332.173V303.578C56.8325 273.577 81.1525 249.271 111.161 249.264C121.766 249.257 131.103 243.801 136.479 235.527C141.879 227.228 141.322 220.012 141.322 214.179L141.432 213.909C115.283 203.086 96.8923 177.324 96.8923 147.264V144.985C86.5096 144.985 78.6833 136.78 78.6833 127.111V96.8399C78.4503 86.3006 78.931 49.1323 105.778 23.2537C136.996 -6.83487 186.466 -4.37301 222.301 11.7238C223.467 12.2482 223.43 13.9161 222.25 14.4041L212.906 18.2499C211.507 18.8253 211.806 20.8865 213.306 21.0468L217.844 21.5348C242.259 24.1423 262.572 38.7168 272.704 55.9862C272.799 56.1537 272.77 56.3722 272.631 56.5179C264.561 64.7484 260.045 75.8267 260.045 87.364V126.054C260.045 136.492 251.589 144.985 241.108 144.985V147.264C241.108 177.324 222.717 203.086 196.568 213.909L196.678 214.179C196.678 219.846 196.076 227.159 201.521 235.527C206.897 243.801 216.234 249.257 226.839 249.264C256.848 249.271 281.168 273.577 281.168 303.578V303.578Z" fill="#FFD6A6"/>
<path d="M272.701 55.9851C272.798 56.1504 272.769 56.3718 272.627 56.516C264.562 64.7494 260.045 75.8292 260.045 87.3635V126.054C260.045 136.491 251.591 144.984 241.108 144.984C241.108 122.943 241.12 111.425 241.116 105.234C241.113 101.325 237.336 98.5155 233.6 99.6648C221.858 103.277 208.16 105.139 193.765 102.011C168.433 96.5045 161.258 86.5769 140.595 81.6168C117.506 76.0812 96.5652 93.7658 96.7109 116.389C96.7546 123.825 96.8784 133.119 96.893 144.984C86.5102 144.984 78.684 136.779 78.684 127.11V96.8395C78.4509 86.3001 78.9316 49.1319 105.779 23.2533C136.994 -6.83602 186.469 -4.3727 222.298 11.7255C223.464 12.2492 223.433 13.9179 222.251 14.4044L212.906 18.2516C211.509 18.827 211.803 20.8861 213.305 21.0471L217.844 21.5343C242.261 24.1448 262.573 38.7142 272.701 55.9851V55.9851Z" fill="#42434D"/>
<path d="M233.6 99.6649C237.335 98.5155 241.112 101.322 241.115 105.23C241.12 111.636 241.107 123.738 241.107 147.264C241.107 177.323 222.716 203.086 196.568 213.909C149.285 233.536 96.8916 198.669 96.8916 147.264C96.8916 133.971 96.7576 124.526 96.7095 116.389C96.5638 93.7659 117.504 76.0813 140.593 81.6168C161.257 86.577 168.431 96.5045 193.764 102.011C208.16 105.139 221.857 103.278 233.6 99.6649V99.6649Z" fill="#FFDFBA"/>
<path d="M281.168 303.578V332.173C281.168 335.391 278.559 338 275.341 338H62.6594C59.4415 338 56.8325 335.391 56.8325 332.173V303.578C56.8325 273.577 81.1561 249.275 111.157 249.264C121.765 249.261 131.105 243.799 136.479 235.527C155.237 251.553 182.752 251.562 201.521 235.527C206.894 243.799 216.235 249.261 226.843 249.264C256.844 249.275 281.168 273.577 281.168 303.578V303.578Z" fill="#42434D"/>
<path d="M227.997 325.618H210.517C207.299 325.618 204.69 323.009 204.69 319.791C204.69 316.573 207.299 313.964 210.517 313.964H227.997C231.215 313.964 233.824 316.573 233.824 319.791C233.824 323.009 231.216 325.618 227.997 325.618Z" fill="white"/>
<path d="M140.508 266.859C137.815 267.706 134.926 268.173 131.829 268.2C101.75 268.465 77.2266 292.248 77.2266 322.328V327.803C77.2266 333.435 72.6612 338 67.0296 338H62.6594C59.4415 338 56.8325 335.391 56.8325 332.173V303.578C56.8325 273.577 81.1561 249.275 111.157 249.264C121.765 249.261 131.105 243.799 136.479 235.527C138.645 237.377 140.964 239.04 143.407 240.496C154.152 246.899 152.44 263.107 140.508 266.859Z" fill="#4D4E59"/>
<path d="M197.492 266.859C200.185 267.706 203.074 268.173 206.171 268.2C236.25 268.465 260.773 292.248 260.773 322.328V327.803C260.773 333.435 265.339 338 270.97 338H275.341C278.558 338 281.167 335.391 281.167 332.173V303.578C281.167 273.577 256.844 249.275 226.843 249.264C216.235 249.261 206.895 243.799 201.521 235.527C199.355 237.377 197.036 239.04 194.593 240.496C183.848 246.899 185.56 263.107 197.492 266.859V266.859Z" fill="#2C2C33"/>
<path d="M197.501 226.138C179.556 233.65 159.836 234.233 140.499 226.138C141.487 222.041 141.322 219.386 141.322 214.179L141.432 213.909C158.972 221.19 178.994 221.204 196.568 213.909L196.678 214.179C196.678 219.389 196.513 222.042 197.501 226.138Z" fill="#F7C388"/>
<path d="M222.25 14.4041C215.383 17.228 213.863 18.2229 210.709 17.7036C152.916 8.18975 107.408 38.408 101.182 97.4583C101.073 98.4948 100.807 99.5123 100.348 100.448C95.9155 109.47 96.7036 116.148 96.7976 127.25C96.8959 138.929 79.2958 139.677 78.7058 128.012C78.6687 127.284 78.6832 129.204 78.6832 96.8399C78.4502 86.3006 78.9309 49.1323 105.778 23.2537C136.996 -6.83487 186.466 -4.37301 222.301 11.7238C223.467 12.2482 223.43 13.9161 222.25 14.4041V14.4041Z" fill="#4D4E59"/>
<path d="M152.683 193.835C164.534 201.246 155.181 219.433 142.209 214.227C115.567 203.535 96.893 177.561 96.893 147.265C96.893 133.956 96.759 124.559 96.7109 116.39C96.665 109.077 98.8203 102.28 102.539 96.6179C107.214 89.5011 118.5 92.6025 118.562 101.823C118.61 110.02 118.744 119.375 118.744 132.698C118.743 159.281 132.719 181.35 152.683 193.835Z" fill="#FFEBD2"/>
<path d="M147.555 124.082H154.605V129.18H147.555V137.148H142.184V129.18H135.113V124.082H142.184V116.445H147.555V124.082Z" fill="#42434D"/>
<path d="M199.555 124.082H206.605V129.18H199.555V137.148H194.184V129.18H187.113V124.082H194.184V116.445H199.555V124.082Z" fill="#42434D"/>
<path d="M159 171.031H181.75V178.031C181.75 180.031 181.297 181.818 180.391 183.391C179.495 184.974 178.214 186.208 176.547 187.094C174.891 187.979 173.005 188.422 170.891 188.422H169.844C167.729 188.422 165.849 187.984 164.203 187.109C162.557 186.245 161.281 185.021 160.375 183.438C159.469 181.854 159.01 180.068 159 178.078V171.031ZM177.953 175.719H162.766V177.984C162.766 179.818 163.365 181.219 164.562 182.188C165.76 183.156 167.474 183.651 169.703 183.672H170.906C173.219 183.672 174.969 183.193 176.156 182.234C177.354 181.276 177.953 179.875 177.953 178.031V175.719Z" fill="#42434D"/>
</g>
<defs>
<clipPath id="clip0">
<rect width="338" height="338" fill="white"/>
</clipPath>
</defs>
</svg>
