<svg width="583" height="416" viewBox="0 0 583 416" fill="none" xmlns="http://www.w3.org/2000/svg">
<ellipse cx="291.5" cy="185.5" rx="291.5" ry="45.5" fill="#338F7C" fill-opacity="0.6"/>
<g clip-path="url(#clip0)">
<path d="M286.511 416.022C363.008 416.022 425.022 412.091 425.022 407.242C425.022 402.394 363.008 398.463 286.511 398.463C210.013 398.463 148 402.394 148 407.242C148 412.091 210.013 416.022 286.511 416.022Z" fill="#FFE8AF"/>
<path d="M282.235 87.6426C274.337 77.8367 272.461 71.9618 279.333 66.3272C286.205 60.6926 292.968 66.5675 300.626 76.1113C311.141 89.2151 319.606 100.703 329.423 114.811C331.976 118.48 332.019 122.105 330.71 128.308C327.613 142.853 314.283 185.833 314.283 185.833C314.283 185.833 305.556 187.34 302.96 181.662C306.694 162.375 309.035 142.843 309.963 123.219C300.975 111.622 292.903 100.899 282.235 87.6426Z" fill="#A04029"/>
<path d="M249.118 19.6565C238.428 17.4725 240.392 9.63212 243.162 1.90091C247.242 4.74006 259.11 2.90553 267.16 1.18021C278.897 -1.37502 289.805 -0.763512 292.881 13.6943C295.957 28.1521 290.176 50.3847 279.792 53.0055C269.407 55.6262 252.718 31.3406 249.118 19.6565Z" fill="#053435"/>
<path d="M355.079 366.119C356.31 371.516 356.31 377.122 355.079 382.52C353.465 387.369 343.757 400.123 337.888 401.324C332.019 402.525 324.558 403.748 325.976 406.784C327.394 409.82 347.793 408.007 355.276 405.976C362.758 403.945 382.764 388.177 385.6 384.333C388.436 380.489 387.629 380.489 385.404 378.065L366.794 357.623L355.079 366.119Z" fill="#21170F"/>
<path d="M235.003 372.998C232.385 376.23 218.837 389.596 209.74 389.793C200.642 389.989 190.345 390.404 189.123 394.445C187.902 398.485 202.06 401.324 217.637 403.355C233.214 405.386 253.612 405.539 254.419 402.547C255.227 399.555 248.747 375.641 248.747 375.641L235.003 372.998Z" fill="#21170F"/>
<path d="M247.329 268.998C247.329 275.681 243.49 344.476 232.778 373.413C234 378.677 248.747 379.965 251.998 375.597C255.838 355.548 272.2 283.325 272.614 271.575C273.029 259.826 247.329 268.998 247.329 268.998Z" fill="#32251E"/>
<path d="M286.358 270.615C287.578 276.086 290.151 281.163 293.841 285.379C298.204 290.642 350.563 365.115 353.661 369.57C363.98 367.124 369.63 362.276 369.63 355.396C361.798 341.441 334.048 295.49 328.398 286.099C322.748 276.708 321.111 271.183 310.814 263.648C303.724 258.538 286.358 270.615 286.358 270.615Z" fill="#32251E"/>
<path d="M279.115 58.9675L270.891 32.083L260.484 35.7739L266.68 63.6849C271.283 65.3447 277.501 61.1515 279.115 58.9675Z" fill="#D07D78"/>
<path d="M276.868 53.7921C276.868 53.7921 254.746 65.2797 249.401 59.6669C248.594 58.8152 247.002 51.9576 246.107 47C244.82 39.6619 244.362 30.1398 246.5 23.9811C250.056 13.782 263.08 0.1978 272.788 4.36916C282.497 8.54051 303.898 24.0248 276.868 53.7921Z" fill="#F3AA96"/>
<path d="M249.947 32.9781L249.511 31.624C246.593 34.2252 243.445 36.5569 240.108 38.5908C245.758 44.9243 252.325 40.0323 251.387 32.7378C250.874 32.7359 250.364 32.8246 249.882 32.9999C249.598 33.1528 249.642 33.0873 249.947 32.9781Z" fill="#F3AA96"/>
<path d="M273.334 38.5473C273.879 43.6141 274.381 53.835 277.893 55.8224C283.781 50.8704 288.026 44.2442 290.067 36.822C291.158 31.2966 293.143 18.2584 291.856 14.9824C284.722 6.24659 281.711 4.43391 277.348 3.8224C273.836 3.34193 266.811 2.97066 262.491 4.69599C260.452 5.49749 258.529 6.56997 256.775 7.88456C255.794 8.62711 253.416 8.67079 252.412 10.0685L247.002 17.9308C259.306 26.5137 269.8 12.4272 271.479 15.7468C273.443 19.6561 264.193 28.3919 265.611 32.4541C266.833 35.9702 271.436 34.092 273.334 38.5473Z" fill="#053435"/>
<path d="M274.883 36.3853C273.596 39.6394 269.734 42.9372 267.596 42.0418C265.458 41.1463 264.782 37.8704 266.069 34.6163C267.356 31.3622 270.149 27.3656 272.919 28.6541C274.992 29.615 276.17 33.1312 274.883 36.3853Z" fill="#F3AA96"/>
<path d="M248.464 26.0557C248.114 27.5408 246.98 32.9133 251.169 33.6777C255.357 34.4421 254.899 27.7373 254.899 27.7373C254.899 27.7373 250.383 26.4269 248.464 26.0557Z" fill="url(#paint0_linear)"/>
<path d="M249.467 25.7932C254.048 26.0989 257.125 28.676 252.936 28.13C248.747 27.584 247.067 25.6185 249.467 25.7932Z" fill="#053435"/>
<path d="M252.565 33.3274C251.583 30.794 248.834 31.471 248.725 33.5457" stroke="#4B2B19" stroke-width="0.34" stroke-miterlimit="10"/>
<path d="M258.324 45.3828C258.605 45.7515 258.785 46.1872 258.847 46.6468C258.908 47.1064 258.848 47.5741 258.673 48.0036C258.352 48.9002 257.747 49.6671 256.95 50.1875C256.166 50.6595 255.3 50.9782 254.398 51.1266L253.045 51.2577H251.714C253.444 51.1317 255.126 50.6325 256.645 49.7944C257.373 49.3658 257.947 48.7154 258.281 47.938C258.49 47.5463 258.604 47.1101 258.611 46.6657C258.619 46.2213 258.521 45.7815 258.324 45.3828Z" fill="#A56052"/>
<path d="M315.417 145.692C312.756 126.954 297.048 70.7823 295.041 61.4131C295.041 61.2384 295.041 61.0855 295.041 60.9326C283.462 61.7412 272.588 66.7955 264.498 75.1283C261.315 90.0131 259.128 105.094 257.953 120.271C256.95 139.926 255.292 190.157 251.932 206.908C248.573 223.659 242.922 270.44 242.922 270.44C255.619 279.809 313.759 275.79 325.453 260.743C325.453 237.003 318.166 164.43 315.417 145.692Z" fill="#D45139"/>
<path d="M291.987 77.5752C294.343 84.9351 296.35 135.122 296.983 139.25C297.382 141.03 297.322 142.884 296.806 144.634C296.291 146.384 295.338 147.974 294.037 149.253C291.049 152.638 254.899 177.884 254.899 177.884L255.51 170.721L283.566 137.35L287.929 99.8952L291.987 77.5752Z" fill="#B0462E"/>
<path d="M286.686 48.7037C277.713 52.622 269.641 58.3461 262.971 65.5202C261.292 67.857 264.629 74.5399 264.629 74.5399L264.499 75.2169C272.588 66.8841 283.462 61.8298 295.041 61.0212C293.209 51.7831 297.528 44.4231 286.686 48.7037Z" fill="#A04029"/>
<path d="M232.472 177.011C232.472 177.011 218.161 180.483 216.197 181.379C214.234 182.274 207.166 190.398 206.686 191.534C206.206 192.67 208.104 192.408 210.285 190.639C212.467 188.87 216.546 184.917 216.437 185.266C216.328 185.616 208.824 194.941 208.474 196.186C208.125 197.431 210.089 196.907 212.052 195.094C214.016 193.281 217.943 188.542 217.943 188.542C217.943 188.542 213.165 194.635 212.096 195.924C211.027 197.212 211.551 198.501 213.296 197.343C215.041 196.186 220.561 190.792 220.452 191.185C220.342 191.578 216.088 196.666 215.761 197.736C215.434 198.807 217.048 198.523 219.448 196.295C221.848 194.067 223.964 191.818 225.12 190.813C226.276 189.809 231.381 187.647 232.625 186.445C233.869 185.244 235.505 184.261 236.159 183.475C236.814 182.689 238.952 180.702 238.952 180.702C237.244 178.807 234.972 177.512 232.472 177.011Z" fill="#F3AA96"/>
<path d="M272.57 88.9314C272.57 76.3299 274.752 70.5643 283.479 70.4551C292.205 70.3459 293.994 79.1909 294.059 91.3992C294.059 108.194 293.558 122.477 292.445 139.621C292.161 143.989 289.936 146.959 285.049 150.978C273.661 160.434 236.465 185.637 236.465 185.637C236.465 185.637 228.72 181.269 230.203 175.307C245.135 162.561 259.133 148.76 272.091 134.008C272.352 119.376 272.658 105.944 272.57 88.9314Z" fill="#E86230"/>
<path d="M270.171 27.4098C268.582 30.5974 268.084 34.2193 268.753 37.7181C269.996 43.1998 271.24 49.4023 271.24 49.4023L266.462 51.6954C266.462 51.6954 258.499 32.6295 271.48 22.6925C280.861 15.5073 270.171 27.4098 270.171 27.4098Z" fill="#053435"/>
</g>
<defs>
<linearGradient id="paint0_linear" x1="255.751" y1="33.7781" x2="254.642" y2="40.0042" gradientUnits="userSpaceOnUse">
<stop stop-color="#CE7B76"/>
<stop offset="1" stop-color="#CE7B76" stop-opacity="0"/>
</linearGradient>
<clipPath id="clip0">
<rect width="277" height="416" fill="white" transform="translate(148)"/>
</clipPath>
</defs>
</svg>
