<svg id="Capa_1" enable-background="new 0 0 503.168 503.168" height="512" viewBox="0 0 503.168 503.168" width="512" xmlns="http://www.w3.org/2000/svg"><g><g><g><path d="m420.912 391.268c-5.216-12.163-15.077-21.737-27.389-26.592l-86.63-34.16c-4.737-1.868-7.85-6.442-7.85-11.534v-57.555h-94.919v57.555c0 5.092-3.113 9.666-7.85 11.534l-86.63 34.16c-12.312 4.855-22.173 14.429-27.389 26.592-12.963 30.227-19.647 62.773-19.647 95.663 0 4.826 3.912 8.737 8.737 8.737h360.476c4.826 0 8.737-3.912 8.737-8.737.001-32.89-6.683-65.436-19.646-95.663z" fill="#ffcdbe"/></g></g><g><g><path d="m420.912 391.268c-5.216-12.163-15.077-21.737-27.389-26.592l-86.629-34.16c-4.737-1.868-7.85-6.442-7.85-11.534v-28.685h-28.541v39.15c0 5.092 3.113 9.666 7.85 11.534l86.63 34.16c12.312 4.855 22.173 14.429 27.389 26.592 12.736 29.697 19.395 61.634 19.625 93.935h19.826c4.826 0 8.737-3.912 8.737-8.737-.001-32.89-6.685-65.436-19.648-95.663z" fill="#ebae9d"/></g></g><g><g><path d="m420.912 391.268c-5.216-12.163-15.077-21.738-27.389-26.592l-83.098-32.767-58.842 60-58.841-60-83.098 32.767c-12.312 4.855-22.173 14.429-27.389 26.592-12.963 30.227-19.647 62.773-19.647 95.663 0 4.826 3.912 8.737 8.737 8.737h360.476c4.826 0 8.737-3.912 8.737-8.737.001-32.89-6.683-65.436-19.646-95.663z" fill="#9ec8fc"/></g></g><g><g><path d="m420.912 391.268c-5.216-12.163-15.077-21.738-27.389-26.592l-83.098-32.767-15.438 15.742 68.536 27.025c12.312 4.855 22.173 14.429 27.389 26.592 12.797 29.84 19.462 61.941 19.631 94.4h21.279c4.825 0 8.737-3.912 8.737-8.737 0-32.89-6.684-65.436-19.647-95.663z" fill="#80b6fc"/></g></g><g><g><path d="m265.625 436.951-13.484-18.163-13.485 18.163-19.476 58.717h32.961 32.96z" fill="#fff"/></g></g><g><g><path d="m252.141 388.909-34.961-5.398 5.956 21.32 15.52 32.12h13.485 13.484l15.52-32.12 5.956-21.32z" fill="#fff"/></g></g><g><g><circle cx="353.82" cy="179.777" fill="#ffcdbe" r="28.155"/></g></g><g><g><circle cx="153.945" cy="179.777" fill="#ffcdbe" r="28.155"/></g></g><g><g><path d="m315.34 64.563c-12.571-7.222-31.551-11.023-45.971-12.977-11.34-1.537-22.82-1.537-34.159 0-14.42 1.954-33.4 5.756-45.971 12.977-4.646 2.669-8.258 6.808-10.286 11.767-12.096 29.579-58.799 159.833 30.67 216.531 25.97 16.458 59.361 16.458 85.331 0 89.47-56.697 42.766-186.951 30.67-216.531-2.027-4.959-5.638-9.098-10.284-11.767z" fill="#ffcdbe"/></g></g><g><g><path d="m325.625 76.33c-2.028-4.959-5.64-9.099-10.285-11.767-12.571-7.222-31.551-11.023-45.971-12.977-10.405-1.41-20.926-1.51-31.35-.333.937.106 1.874.206 2.809.333 14.42 1.954 33.4 5.756 45.971 12.977 4.646 2.669 8.258 6.808 10.286 11.767 12.096 29.579 58.799 159.833-30.67 216.531-8.805 5.579-18.463 9.261-28.395 11.058 19.364 3.502 39.771-.18 56.936-11.058 89.469-56.697 42.765-186.951 30.669-216.531z" fill="#ebae9d"/></g></g><g><g><path d="m232.373 211.72s-24.608-.532-40.873 21.315c-16.265 21.846-43.849 7.219-43.849 7.219s12.197 47.014 75.508 11.431c4.499-2.529 9.173-4.783 14.12-6.252 7.115-2.112 12.305-8.701 12.305-16.502 0-9.505-7.706-17.211-17.211-17.211z" fill="#61362b"/></g></g><g><g><path d="m266.795 211.72s24.608-.532 40.873 21.315c16.265 21.846 43.849 7.219 43.849 7.219s-12.197 47.014-75.508 11.431c-4.499-2.529-9.173-4.783-14.121-6.252-7.115-2.112-12.305-8.701-12.305-16.502.001-9.505 7.706-17.211 17.212-17.211z" fill="#61362b"/></g></g><g><g><path d="m247.584 389.445-30.766 25.2c-2.566 2.102-6.425 1.225-7.832-1.779l-34.525-73.748 30.094-22.152z" fill="#4981f8"/></g></g><g><g><path d="m257.584 389.445 30.797 25.225c2.556 2.094 6.4 1.233 7.819-1.751l34.461-72.479-30.049-23.475z" fill="#4981f8"/></g></g><g><g><path d="m307.432 183.685h-110.402c-22.312 0-40.399-18.087-40.399-40.399v-.909h191.2v.909c0 22.311-18.088 40.399-40.399 40.399z" fill="#62a4fb"/></g></g><g><g><path d="m307.432 183.685h-110.402c-22.312 0-40.399-18.087-40.399-40.399v-.909h191.2v.909c0 22.311-18.088 40.399-40.399 40.399z" fill="#62a4fb"/></g></g><g><g><path d="m381.228 46.721-13.586-12.393c-7.416-6.765-16.558-11.348-26.416-13.243l-50.851-9.777c-26.286-5.054-53.295-5.054-79.581 0l-45.455 8.739c-13.386 2.574-25.801 8.797-35.872 17.984l-9.527 8.689c-16.135 14.718-21.917 37.652-14.687 58.26 6.122 17.45 20.681 30.6 38.662 34.92l39.356 9.457h134.628l39.356-9.457c17.981-4.32 32.54-17.471 38.662-34.92 7.228-20.608 1.446-43.542-14.689-58.259z" fill="#62a4fb"/></g></g><g><g><path d="m381.228 46.721-13.586-12.393c-7.417-6.765-16.558-11.348-26.416-13.243l-50.851-9.777c-18.079-3.476-36.499-4.561-54.791-3.256 8.305.593 16.583 1.678 24.791 3.256l50.851 9.777c9.858 1.895 18.999 6.478 26.416 13.243l13.586 12.393c16.136 14.718 21.917 37.652 14.687 58.26-6.122 17.45-20.681 30.6-38.662 34.92l-39.356 9.457h30l39.356-9.457c17.981-4.32 32.54-17.471 38.662-34.92 7.23-20.609 1.448-43.543-14.687-58.26z" fill="#5392f9"/></g></g><g><g><path d="m226.229 51.274c-1.701 0-3.266.972-3.98 2.516-2.837 6.137-4.459 13.227-4.459 20.783 0 23.341 15.446 42.263 34.5 42.263s34.5-18.922 34.5-42.263c0-7.556-1.623-14.646-4.46-20.783-.714-1.544-2.279-2.516-3.98-2.516z" fill="#f7d958"/></g></g><g><g><path d="m282.33 53.79c-.714-1.544-2.279-2.516-3.98-2.516h-30c1.701 0 3.266.972 3.979 2.516 2.837 6.137 4.46 13.227 4.46 20.783 0 16.755-7.96 31.232-19.5 38.068 4.536 2.687 9.624 4.194 15 4.194 19.054 0 34.5-18.922 34.5-42.263.001-7.556-1.622-14.645-4.459-20.782z" fill="#f3c625"/></g></g><g><g><path d="m317.831 142.377v.909c0 22.312-18.087 40.399-40.399 40.399h30c22.312 0 40.399-18.087 40.399-40.399v-.909z" fill="#5392f9"/></g></g><g><g><path d="m307.432 183.685h-110.402c-22.312 0-40.399-18.087-40.399-40.399v-.909h191.2v.909c0 22.311-18.088 40.399-40.399 40.399z" fill="none"/></g></g><g><path d="m427.805 388.313c-5.962-13.905-17.454-25.063-31.53-30.614l-63.279-24.952-26.453-20.666v-18.096c8.566-6.34 16.11-13.601 22.472-21.692.351-.447.638-.922.873-1.414 1.814-.499 3.583-1.099 5.296-1.828 18.461-7.859 23.393-26.14 23.594-26.914.744-2.868-.283-5.898-2.602-7.743-1.973-1.572-4.584-2.011-6.938-1.268 1.75-5.675 3.179-11.575 4.259-17.71.108.005.214.016.323.016 19.66 0 35.655-15.995 35.655-35.655 0-16.031-10.636-29.621-25.221-34.094 18.078-6.047 32.35-20.009 38.739-38.22 8.24-23.49 1.682-49.508-16.71-66.284l-13.587-12.392c-8.441-7.7-18.834-12.91-30.054-15.067l-50.852-9.777c-27.343-5.257-55.071-5.257-82.413 0l-45.455 8.739c-14.751 2.836-28.413 9.686-39.51 19.808l-9.526 8.689c-18.392 16.776-24.951 42.794-16.71 66.284 6.806 19.397 22.552 33.977 42.319 39.302-13.01 5.321-22.204 18.11-22.204 33.012 0 18.691 14.459 34.057 32.777 35.529 1.24 7.073 2.93 13.844 5.06 20.305-3.015-.983-4.944-1.973-4.963-1.983-2.628-1.393-5.83-1.102-8.162.74-2.333 1.843-3.358 4.891-2.611 7.769.201.774 5.132 19.055 23.593 26.914 3.713 1.58 7.67 2.606 11.853 3.103.275.663.648 1.299 1.126 1.883 5.69 6.949 12.286 13.267 19.662 18.889v20.564l-25.826 19.009-63.907 25.2c-14.075 5.55-25.568 16.708-31.531 30.614-13.439 31.339-20.253 64.519-20.253 98.618 0 8.953 7.284 16.237 16.237 16.237h103.115c4.142 0 7.5-3.358 7.5-7.5s-3.358-7.5-7.5-7.5h-43.063c.192-8.022 1.492-19.903 3.666-29.288.935-4.035-1.579-8.064-5.614-8.999-4.034-.934-8.064 1.579-8.999 5.614-2.328 10.053-3.872 23.06-4.056 32.673h-45.049c-.682 0-1.237-.555-1.237-1.237 0-32.055 6.406-63.246 19.04-92.707 4.396-10.251 12.869-18.479 23.248-22.571l58.26-22.973 31.537 67.366c1.659 3.543 4.798 6.072 8.613 6.938.938.213 1.882.318 2.818.318 2.872 0 5.664-.986 7.946-2.855l.56-.459 8.45 17.488-16.814 50.692h-9.305c-4.142 0-7.5 3.358-7.5 7.5s3.358 7.5 7.5 7.5h227.362c8.953 0 16.237-7.284 16.237-16.237-.001-34.099-6.816-67.279-20.256-98.618zm-160.48-.584 35.386-59.607 18.596 14.527-30.558 64.266zm-14.741-4.553-40.96-68.996v-11.515c12.674 6.667 26.666 10.008 40.665 10.008 13.478 0 26.957-3.102 39.254-9.284v14.161zm38.356-96.65c-23.479 14.879-53.823 14.879-77.302 0-7.107-4.504-13.509-9.667-19.135-15.397 9.861-2.042 20.657-6.346 32.33-12.907 4.799-2.697 8.796-4.477 12.581-5.6 3.905-1.159 7.367-3.256 10.17-5.997 2.803 2.741 6.265 4.838 10.17 5.997 3.784 1.123 7.781 2.903 12.58 5.6 13.524 7.601 25.865 12.166 36.943 13.699-5.434 5.415-11.56 10.311-18.337 14.605zm-118.347-49.469c-6.732-17.094-9.742-37.048-8.996-59.517 8.638 8.433 20.436 13.644 33.433 13.644h110.402c13.058 0 24.907-5.258 33.556-13.761.766 22.737-2.318 42.895-9.193 60.118-7.638.043-13.585-2.909-18.111-8.986-17.989-24.162-44.763-24.355-46.946-24.336-6.664.015-12.713 2.687-17.153 7.004-4.441-4.317-10.489-6.989-17.153-7.004-2.195-.027-28.96.176-46.947 24.336-3.439 4.619-7.696 7.433-12.892 8.502zm156.542 18.265c-11.771 4.909-28.872 1.39-49.451-10.176-5.8-3.26-10.776-5.454-15.66-6.904-4.086-1.213-6.939-5.042-6.939-9.312 0-5.355 4.356-9.711 9.711-9.711.045 0 .114-.002.205-.001 1.653 0 21.32.389 34.652 18.295 9.089 12.208 21.467 15.519 32.546 14.969-1.482 1.075-3.162 2.048-5.064 2.84zm45.34-75.545c0 10.843-8.403 19.742-19.036 20.573 1.066-12.671.854-26.174-.652-40.446-.026-.251-.066-.497-.116-.739 10.993.451 19.804 9.51 19.804 20.612zm-262.145-77.28c-6.246-17.803-1.275-37.521 12.664-50.236l9.526-8.689c9.054-8.258 20.2-13.846 32.234-16.16l45.455-8.739c25.463-4.897 51.285-4.897 76.749 0l50.852 9.777c8.503 1.635 16.38 5.584 22.777 11.419l13.586 12.392c13.939 12.714 18.91 32.433 12.665 50.236-5.302 15.113-17.765 26.369-33.338 30.111l-9.439 2.269h-109.274c-4.142 0-7.5 3.358-7.5 7.5s3.358 7.5 7.5 7.5h102.881c-3.061 14.993-16.352 26.308-32.236 26.308h-110.402c-15.884 0-29.175-11.315-32.236-26.308h41.993c4.142 0 7.5-3.358 7.5-7.5s-3.358-7.5-7.5-7.5c0 0-50.917.038-51.287.094l-9.833-2.363c-15.573-3.742-28.035-14.998-33.337-30.111zm20.96 77.28c0-9.987 7.126-18.339 16.56-20.244-1.52 14.215-1.768 27.672-.741 40.304-9.06-2.186-15.819-10.339-15.819-20.06zm31.68 72.705c11.084.547 23.457-2.762 32.545-14.968 13.333-17.907 33.001-18.296 34.653-18.296.11 0 .145.001.205.001 5.354 0 9.711 4.357 9.711 9.711 0 4.27-2.854 8.099-6.939 9.312-4.885 1.45-9.861 3.644-15.661 6.904-20.58 11.566-37.68 15.084-49.452 10.176-1.901-.792-3.582-1.765-5.062-2.84zm19.119 89.514c.24-.352.445-.725.622-1.112l17.621-12.97 35.51 59.815-23.379 19.149zm68.247 53.251c.087-.071.165-.149.248-.223.083.074.161.152.248.223l17.635 14.444-9.548 19.76h-17.558l-9.296-19.239zm-8.266 49.204h16.141l14.501 43.717h-45.143zm187.752 43.717h-45.049c-.184-9.614-1.728-22.621-4.056-32.673-.935-4.035-4.963-6.548-8.999-5.614-4.035.935-6.549 4.964-5.614 8.999 2.173 9.384 3.474 21.265 3.666 29.288h-81.255l-16.814-50.691 8.702-18.009 1.225 1.004c2.282 1.869 5.075 2.855 7.948 2.855.923 0 1.855-.102 2.78-.309 3.803-.852 6.943-3.359 8.616-6.879l31.675-66.617 56.125 22.131c10.377 4.092 18.851 12.319 23.247 22.571 12.634 29.461 19.04 60.652 19.04 92.707.001.682-.554 1.237-1.237 1.237z"/><path d="m348.606 443.717h-44.962c-4.143 0-7.5 3.358-7.5 7.5s3.357 7.5 7.5 7.5h44.962c4.143 0 7.5-3.358 7.5-7.5s-3.358-7.5-7.5-7.5z"/><path d="m252.29 124.335c23.159 0 42-22.323 42-49.763 0-8.364-1.781-16.639-5.152-23.93-1.93-4.172-6.163-6.869-10.787-6.869h-52.122c-4.624 0-8.858 2.696-10.787 6.869-3.371 7.291-5.152 15.565-5.152 23.93 0 27.44 18.841 49.763 42 49.763zm-24.024-65.561h48.048c1.952 4.876 2.977 10.295 2.977 15.799 0 19.168-12.112 34.763-27 34.763s-27-15.595-27-34.763c-.001-5.505 1.024-10.925 2.975-15.799z"/></g></g></svg>