<svg height="512" viewBox="0 0 58 58" width="512" xmlns="http://www.w3.org/2000/svg"><g id="Page-1" fill="none" fill-rule="evenodd"><g id="011---Thanatophobia" fill-rule="nonzero"><path id="Shape" d="m58 21.91c-6.341295-6.349151-14.8435787-10.0735869-23.81-10.43l-12.57 1.45c-6.2912494 1.6635911-12.2508499 4.3931016-17.62 8.07v-17.09c48-15 54 18 54 18z" fill="#95a5a5"/><path id="Shape" d="m58 21.91c-6.341295-6.349151-14.8435787-10.0735869-23.81-10.43l-12.57 1.45c-6.2912494 1.6635911-12.2508499 4.3931016-17.62 8.07v-8.37c13.89-5.78 40.37-12.89 54 9.28z" fill="#7f8c8d"/><path id="Shape" d="m16.505 51.416c-1.6754753 1.8845813-2.8770819 4.1417504-3.505 6.584h32c-.6128647-2.4197572-1.791913-4.6592634-3.44-6.534z" fill="#3f5c6c"/><path id="Shape" d="m41.56 51.466s2.516 2.534 8.478 2.534 7.962-4 7.962-7c0-1-7.962 3-7.962-13 0-14-15.067-24-21.038-24-6.571 0-21.44 12.109-21.012 27z" fill="#35495e"/><path id="Shape" d="m49.979 37.6c-1.27 11.64-10.54 15.36-19.12 19.49-.62.3-1.25.6-1.86.91h-.14c-.66-.33-1.33-.66-2-.98-8.54-4.1-17.72-7.84-18.99-19.42-.66-8.88 14.89-17.54 21.06-17.6 6.171.06 21.72 8.72 21.05 17.6z" fill="#2c3e50"/><path id="Shape" d="m35 47v1c0 2.209139-1.790861 4-4 4h-4c-2.209139 0-4-1.790861-4-4v-1c0-.5522847.4477153-1 1-1h10c.5522847 0 1 .4477153 1 1z" fill="#ecf0f1"/><path id="Shape" d="m43 26.12v6.88c.0013309 3.3678061-1.8777252 6.4545513-4.87 8-.6843364.3355497-1.1213904 1.0278742-1.13 1.79v.21c0 1.6568542-1.3431458 3-3 3h-10c-1.6568542 0-3-1.3431458-3-3v-.21c-.0086096-.7621258-.4456636-1.4544503-1.13-1.79-2.9922748-1.5454487-4.8713309-4.6321939-4.87-8v-6.77c4.76-3.69 10.76-6.2 14.07-6.23 3.27.03 9.2 2.49 13.93 6.12z" fill="#d1d4d1"/><path id="Shape" d="m43 29.12v3.88c.0013309 3.3678061-1.8777252 6.4545513-4.87 8-.6843364.3355497-1.1213904 1.0278742-1.13 1.79v.21c0 1.6568542-1.3431458 3-3 3h-10c-1.6568542 0-3-1.3431458-3-3v-.21c-.0086096-.7621258-.4456636-1.4544503-1.13-1.79-2.9922748-1.5454487-4.8713309-4.6321939-4.87-8v-3.77c4.76-3.69 10.76-6.2 14.07-6.23 3.27.03 9.2 2.49 13.93 6.12z" fill="#ecf0f1"/><path id="Shape" d="m2 0c1.1045695 0 2 .8954305 2 2v56h-4v-56c0-1.1045695.8954305-2 2-2z" fill="#a56a43"/><g fill="#95a5a5"><path id="Shape" d="m30 43v3h-2v-3c0-.5522847.4477153-1 1-1s1 .4477153 1 1z"/><path id="Shape" d="m26 43v3h-2v-3c0-.5522847.4477153-1 1-1s1 .4477153 1 1z"/><path id="Shape" d="m34 43v3h-2v-3c0-.5522847.4477153-1 1-1s1 .4477153 1 1z"/><path id="Shape" d="m28 46v2c0 .5522847-.4477153 1-1 1s-1-.4477153-1-1v-2z"/><path id="Shape" d="m32 46v2c0 .5522847-.4477153 1-1 1s-1-.4477153-1-1v-2z"/></g><path id="Shape" d="m31 40c-.2651948-.0000566-.5195073-.1054506-.707-.293l-1.293-1.293-1.293 1.293c-.3923789.3789722-1.0160848.3735524-1.4018186-.0121814s-.3911536-1.0094397-.0121814-1.4018186l2-2c.3904999-.3903819 1.0235001-.3903819 1.414 0l2 2c.2859079.2859943.3714219.7160366.216678 1.0896546-.1547439.3736179-.5192821.6172591-.923678.6173454z" fill="#3f5c6c"/><path id="Shape" d="m21 30h4c.5522847 0 1 .4477153 1 1v2c0 1.6568542-1.3431458 3-3 3s-3-1.3431458-3-3v-2c0-.5522847.4477153-1 1-1z" fill="#3f5c6c"/><path id="Shape" d="m33 30h4c.5522847 0 1 .4477153 1 1v2c0 1.6568542-1.3431458 3-3 3s-3-1.3431458-3-3v-2c0-.5522847.4477153-1 1-1z" fill="#3f5c6c"/><path id="Shape" d="m31 52v5.09c-.62.3-1.25.6-1.86.91h-.14c-.66-.33-1.33-.66-2-.98v-5.02z" fill="#bdc3c7"/></g></g></svg>